<svg xmlns="http://www.w3.org/2000/svg" viewBox="0 0 1291.83 342.49"><defs><style>.cls-1{fill:#d38466;}.cls-2{fill:#252424;}</style></defs><g id="Layer_2" data-name="Layer 2"><g id="CURSOS"><path class="cls-1" d="M203.32,206.7c-17.62,27.46-45.89,44.06-83,44.06C52,250.76,0,194.62,0,125.38S52,0,120.3,0c26,0,44.58,6.21,66.07,22l3.39,30.49c-12-30.61-38.17-49.13-69.46-49.13-56.15,0-96.58,53.69-96.58,122s40.43,122,96.58,122c31.58,0,61.91-14.15,79.63-40.67Z"/><path class="cls-1" d="M385.87,3.39V5.08c-6.77,0-10.16,3.39-10.16,8.47v166c0,44.05-27.14,71.16-69.47,71.16-45.74,0-79.63-22-79.63-71.16v-166c0-5.08-3.39-8.47-10.17-8.47V3.39h40.67V5.08c-6.78,0-10.17,3.39-10.17,8.47v166c0,40.6,20.33,67.77,59.3,67.77,40.66,0,66.08-27.17,66.08-67.77v-166c0-5.08-3.39-8.47-10.17-8.47V3.39Z"/><path class="cls-1" d="M580,245.67v1.7H539.34v-1.7c6.78,0,7.45-3.39,4.73-8.47l-53-99.12a152.46,152.46,0,0,1-16.11.85H441.07V237.2c0,5.08,3.39,8.47,10.17,8.47v1.7H410.58v-1.7c6.77,0,10.16-3.39,10.16-8.47V13.55c0-5.08-3.39-8.47-10.16-8.47V3.39H475c59.3,0,91.49,25.41,91.49,67.77,0,34.29-26.5,58.94-67.32,65.82l12.73,2L564.4,237.2C567.12,242.28,573.23,245.67,580,245.67ZM544.42,71.16c0-42.36-23.71-64.38-69.46-64.38H441.07V135.54H475C520.71,135.54,544.42,110.13,544.42,71.16Z"/><path class="cls-1" d="M743.62,182.75c0,46.25-48.26,68-86.79,68-16.83,0-46.26-3.71-68.5-20.7l-4.54-34.46c7.62,22.95,32.22,51.78,73,51.78,35.71,0,64.14-22.59,64.14-58.47,0-73.67-127-61.27-130.57-130.4C588.26,17.09,620.24,0,660.21,0c22.71,0,43,6,62.52,22l3.38,30.49c-9.85-27.23-30-49.13-65.9-49.13C627.08,3.39,607.66,23,608,50.15,608.72,108.79,743.62,100.66,743.62,182.75Z"/><path class="cls-1" d="M1003.53,125.38c0,69.24-52,125.38-120.3,125.38S762.94,194.62,762.94,125.38,814.92,0,883.23,0,1003.53,56.13,1003.53,125.38Zm-23.72,0c0-68.3-40.43-122-96.58-122s-96.57,53.69-96.57,122,40.43,122,96.57,122S979.81,193.67,979.81,125.38Z"/><path class="cls-1" d="M1180.33,182.75c0,46.25-48.25,68-86.78,68-16.83,0-46.26-3.71-68.51-20.7l-4.53-34.46c7.61,22.95,32.21,51.78,73,51.78,35.71,0,64.13-22.59,64.13-58.47,0-73.67-127-61.27-130.56-130.4C1025,17.09,1057,0,1096.93,0c22.7,0,43,6,62.51,22l3.39,30.49c-9.86-27.23-30-49.13-65.9-49.13-33.14,0-52.56,19.6-52.22,46.76C1045.43,108.79,1180.33,100.66,1180.33,182.75Z"/><path class="cls-2" d="M733.83,244.72c-2.39,9.93-11,24-10.77,30.92,5.39-7,11.6-16.75,19.14-21.11,18.24-10.65,10.82,25.23,16.26,28.34,9,5,40.31-26.25,44.08-29.42,2.45-2,4.72-2.15,1.55,1.61-6.52,7.72-33.73,34-48.26,31-16-3.29-4.84-33-12.67-28.52-10.29,5.8-17.7,22.48-22.13,28.34-1.55,1-5.38,1.2-6.82-1.25-5.08-8.56,6.7-33.25,9.69-44.91.6-2.52,1-6.58-1.67-4.55-16.33,13-72.3,75.35-73,38.33-.12-7.59,3.47-15.78,6.64-23.44,5.14-12.5,14.71-9.57,14.53-3.65-.84,1.86-4.61,4.31-5.8,7-2.45,5.56-5.2,12.32-6.28,18.24-5.32,29.72,50.89-28,62.67-38.57,2.57-2.27,4.84-3.23,6.76-3.23C733.17,229.77,735.68,237.36,733.83,244.72Zm-59.44-18.48c-5.8,0-3.53-8.73.59-8.73C682.1,217.51,680.84,226.24,674.39,226.24Z"/><path class="cls-2" d="M790.06,310.32l.06-5.56c.47-19.56,4.84-39.59,10.28-59.38,2.81-10.53,6-21,9.21-31.28-21.35,1.92-42.76,4.49-64.88,7-4.37,1.13-5.56.84-8.49,1.43a8.2,8.2,0,0,1-1.14.12c-1.37,0-2.21-.59-2.21-1.61a2.58,2.58,0,0,1,.42-1.32c1.13-.77,1.25-.95,2.33-1.07,2,.06,4,.3,6,.3a18.8,18.8,0,0,0,3.17-.24c17.46-2.52,41.14-6.22,66.2-9.21,2.39-7.84,4.66-15.55,6.69-23.2,4.25-15.67,1.8-27.75,12.38-32.12,3.23-1.37,5.5-2,7.06-2,1.73,0,2.51.84,2.51,2.39a11.28,11.28,0,0,1-.6,3c-5.32,17.1-11.3,33.85-17.16,50.65a539.74,539.74,0,0,1,56.75-3.53c3.71,0,7.35.06,10.88.18,4,.18,19.08.9,19.8,4.31l.06.66c0,2.93-4.55,4.54-9.15,4.54-4,0-8.08-1.19-9.45-3.65-4.25-.12-8.43-.12-12.56-.12-19.67,0-38.87,1-58,2.52-1.86,5.44-3.71,10.88-5.51,16.38-7.77,23.92-14.65,48.26-17.64,74a164.33,164.33,0,0,0-1.25,17.88c0,10.95,2.15,15.37,5.56,15.37,13.45,0,47.18-69.25,49.57-80.91a4.18,4.18,0,0,1,3.89-3.47,2.39,2.39,0,0,1,2.51,2.52,5.29,5.29,0,0,1-.36,1.73c-6.52,18.3-39.52,85.87-56.63,85.87C794.12,342.49,790.06,333.64,790.06,310.32Z"/><path class="cls-2" d="M948.11,244.72c-2.39,10-10.94,24.1-10.76,31,5.32-7,11.6-16.75,19.13-21.11,18.3-10.71,10.89,25.29,16.33,28.34,9,5.08,40.36-26.25,44.19-29.42,2.39-2,4.73-2.15,1.56,1.55-6.52,7.78-33.85,34.15-48.38,31.1-16-3.35-4.85-33-12.68-28.58-10.34,5.8-17.82,22.54-22.18,28.4-1.56,1-5.39,1.2-6.88-1.31-5.08-8.5,6.76-33.25,9.69-45,.65-2.52,1-6.58-1.62-4.49-21.53,17-64.88,68.65-87.84,45.69-12.56-12.56,7.89-41,19.07-43.54,3.83-.89,12-1,13.7,4.31,3.82,11.54-20.87,21.65-21.53,22.18-3,2.34-3.77,8.56-3.23,12.44,3.59,25.48,64.1-30.2,78.7-43.23,2.51-2.27,4.78-3.23,6.69-3.29C947.46,229.77,950,237.36,948.11,244.72Zm-86.94,15.67c1.07,1.19,22.78-15.19,14.76-15.73C871.63,245.8,859.73,258.83,861.17,260.39Z"/><path class="cls-2" d="M1006.8,317.32c0-6.34,3.41-15.37,12.14-24.4-2.52-7.9-9.33-20.1-9.33-31.4,0-8.13,3.47-15.72,14.59-20.93a14.42,14.42,0,0,1,5.92-1.49h.06c5.62,0,8.31,5.2,8.31,12.08,0,.66,0,1.37-.06,2.09a4.88,4.88,0,0,1-4.84,4.25c-1.8,0-3.29-1.08-3.29-3.53a13.55,13.55,0,0,1,1.85-5.92,14.91,14.91,0,0,0,1.85-4.91c0-.29-.11-.47-.29-.53a2.81,2.81,0,0,0-1-.12,7.35,7.35,0,0,0-4.78,2.39c-5,5-6.7,11.6-6.7,18.18,0,9,3.23,18.18,5.62,23.56,15.37-16.92,35.7-30.08,47.66-34.33l1,.84a3.1,3.1,0,0,1-2.16,2.39c-10,4.67-31.87,18.72-44.25,34.69a1.68,1.68,0,0,0-1,1.49c0,.9.71,1.92.83,3.35.18,1.91.24,3.65.24,5.32,0,8-2,13.82-7.23,20.39-3.35,3.65-6.46,5.27-9,5.27C1009.19,326.05,1006.8,322.64,1006.8,317.32Zm14.05-10.95a59.71,59.71,0,0,0-1-10.1c-6.81,5-9.51,15.78-9.68,19.13v.66c0,3.71,1.67,5.74,3.7,5.74C1017,321.8,1020.85,317.14,1020.85,306.37Z"/><path class="cls-2" d="M1075.09,287.36a11.6,11.6,0,0,1-9.09-5.27,18.66,18.66,0,0,1-2.15-9c0-7.47,3.47-15.54,6.58-23,2.57-6.34,6.34-8.67,9.39-8.67h.12a4.92,4.92,0,0,1,5,5v.12c-.84,1.86-4.66,4.25-5.8,6.94-3.11,7.06-6.76,16.15-6.76,22.9,0,3.23.9,5.92,3,7.6a3.23,3.23,0,0,0,2,.54c9.74,0,42.39-23.74,47.48-28.53,2.51-2.39,4.3-3.41,5.14-3.41.3,0,.48.18.48.54a5.72,5.72,0,0,1-1.74,2.93c-9.62,8.37-40.66,31.4-53.52,31.4Zm10.29-64.53c0-2.45,1.73-5.26,4.07-5.26,3.34,0,4.84,1.91,4.84,4,0,2.33-2,4.78-5.44,4.78A3.2,3.2,0,0,1,1085.38,222.83Z"/><path class="cls-2" d="M1119.89,296.33l-.06-3.47c0-15.79,1.79-38.57,3.53-48,1-5.44,5.2-8.55,8.91-8.55,3.29,0,6.16,2.45,6.16,7.83a17.67,17.67,0,0,1-.24,3c-.6,4-9,39.71-9,49.75,0,1.56.18,2.52.66,2.64l.24.05c5.8,0,35.52-45,35.52-66.43a17.05,17.05,0,0,0-.54-4.49c-.9-3.11-5.26-2.15-8.79-3.11-1.38-.36-2-1.19-2-2.09,0-1.49,1.79-3.23,4.48-3.23a8.6,8.6,0,0,1,4.13,1.2c3.94,2.15,5.56,6.34,5.56,11.72,0,22.48-28.35,66.14-34.87,71-3.28,2.39-5.86,3.47-7.83,3.47C1121.57,307.63,1120,303,1119.89,296.33Z"/><path class="cls-2" d="M1184,287.42c-5.56-2.46-7.65-7.72-7.65-13.76,0-10.7,6.4-23.74,11.24-27.68a7.61,7.61,0,0,1,5.08-2.1,7.87,7.87,0,0,1,3.53.9,10.84,10.84,0,0,1-.84-3.53,2.73,2.73,0,0,1,.78-2c.36-.36.6-1.14,1.38-1.14a3,3,0,0,1,1.67.9c10.59,8.73,22.49,13,34.92,13,1.68,0,2.52.78,2.52,1.62s-.72,1.43-2.1,1.55l-1.91.12c-11.42,0-28.58-9.27-30.5-10.16h-.06c-.18,0-.24.3-.24.84a13.3,13.3,0,0,0,.36,2.63,33.78,33.78,0,0,1,2.57,13.69c0,10.7-4,22-12,25.06a12.73,12.73,0,0,1-4.54.95A10.71,10.71,0,0,1,1184,287.42Zm7-2.22c6-3.52,10-16.2,10-25.89,0-3.71-.54-7-1.86-9.21-7.23,1-12.86,18.9-12.86,28.94,0,3.95.9,6.7,2.93,6.7A3.81,3.81,0,0,0,1191,285.2Z"/><path class="cls-2" d="M1223.18,317.32c0-6.34,3.41-15.37,12.14-24.4-2.52-7.9-9.33-20.1-9.33-31.4,0-8.13,3.47-15.72,14.59-20.93a14.42,14.42,0,0,1,5.92-1.49h.06c5.62,0,8.31,5.2,8.31,12.08,0,.66,0,1.37-.06,2.09a4.88,4.88,0,0,1-4.84,4.25c-1.8,0-3.29-1.08-3.29-3.53a13.55,13.55,0,0,1,1.85-5.92c.9-1.68,1.86-3.89,1.86-4.91a.5.5,0,0,0-.3-.53,2.81,2.81,0,0,0-1-.12,7.35,7.35,0,0,0-4.78,2.39c-5,5-6.7,11.6-6.7,18.18,0,9,3.23,18.18,5.62,23.56,15.37-16.92,35.7-30.08,47.66-34.33l1,.84a3.1,3.1,0,0,1-2.16,2.39c-10,4.67-31.87,18.72-44.25,34.69a1.7,1.7,0,0,0-1,1.49c0,.9.71,1.92.83,3.35.18,1.91.24,3.65.24,5.32,0,8-2,13.82-7.23,20.39-3.35,3.65-6.46,5.27-9,5.27C1225.57,326.05,1223.18,322.64,1223.18,317.32Zm14-10.95a59.71,59.71,0,0,0-1-10.1c-6.81,5-9.5,15.78-9.68,19.13v.66c0,3.71,1.67,5.74,3.7,5.74C1233.34,321.8,1237.23,317.14,1237.23,306.37Z"/></g></g></svg>