<svg xmlns="http://www.w3.org/2000/svg" viewBox="0 0 399.85 94.14"><defs><style>.cls-1{fill:#f6f4f2;}.cls-2{fill:#252424;}</style></defs><g id="Layer_2" data-name="Layer 2"><g id="Layer_7" data-name="Layer 7"><path class="cls-1" d="M42.6,3.34V58.46c0,1.26.83,2.09,2.5,2.09V61h-10v-.42c1.67,0,2.5-.83,2.5-2.09V31.32H7.52V58.46c0,1.26.83,2.09,2.5,2.09V61H0v-.42c1.67,0,2.51-.83,2.51-2.09V3.34c0-1.25-.84-2.09-2.51-2.09V.83H10v.42c-1.67,0-2.5.84-2.5,2.09V30.48H37.58V3.34c0-1.25-.83-2.09-2.5-2.09V.83h10v.42C43.43,1.25,42.6,2.09,42.6,3.34Z"/><path class="cls-1" d="M110.07,30.9c0,17.07-12.81,30.9-29.65,30.9S50.77,48,50.77,30.9,63.58,0,80.42,0,110.07,13.83,110.07,30.9Zm-5.85,0c0-16.83-10-30.07-23.8-30.07S56.62,14.07,56.62,30.9,66.58,61,80.42,61,104.22,47.74,104.22,30.9Z"/><path class="cls-1" d="M155.05,54.29h.42L153,61H115.8v-.42c1.67,0,2.5-.83,2.5-2.09V3.34c0-1.25-.83-2.09-2.5-2.09V.83h10v.42c-1.67,0-2.5.84-2.5,2.09V60.13H148C152.55,60.13,154.09,56.4,155.05,54.29Zm26.73,6.26V61h-10v-.42c1.5,0,2-.69,1.67-1.72l-7.12-18.32H142.66l-2.74,8.24c-.3,1.06.24,1.78,1.77,1.78V51h-5.85v-.42a3.3,3.3,0,0,0,3.34-2.09L155.05.83h.84L178.3,58.46A3.56,3.56,0,0,0,181.78,60.55ZM166,39.67l-12.4-31.9-10.64,31.9Z"/><path class="cls-1" d="M250.54,45c0,11.4-11.89,16.76-21.39,16.76-4.15,0-11.4-.91-16.88-5.1l-1.12-8.49a18.94,18.94,0,0,0,18,12.76C238,61,245,55.4,245,46.56c0-18.16-31.3-15.1-32.18-32.14C212.25,4.21,220.13,0,230,0a23,23,0,0,1,15.4,5.43l.84,7.52C243.8,6.23,238.83.83,230,.83c-8.17,0-13,4.84-12.87,11.53C217.29,26.81,250.54,24.81,250.54,45Z"/><path class="cls-1" d="M314.6,30.9C314.6,48,301.79,61.8,285,61.8S255.3,48,255.3,30.9,268.12,0,285,0,314.6,13.83,314.6,30.9Zm-5.84,0c0-16.83-10-30.07-23.8-30.07S261.15,14.07,261.15,30.9,271.12,61,285,61,308.76,47.74,308.76,30.9Z"/><path class="cls-1" d="M357.07.83v.42a4.4,4.4,0,0,0-3.88,2.09L337,33V58.46c0,1.26.84,2.09,2.51,2.09V61h-10v-.42c1.67,0,2.51-.83,2.51-2.09V33L314.68,3.34a4.63,4.63,0,0,0-4-2.09V.83h10.86v.42c-1.67,0-1.77.87-1.09,2.09L336.73,32,352.36,3.34c.68-1.25.53-2.09-1.14-2.09V.83Z"/><path class="cls-2" d="M77.08,94.09c-1.2-.21-1.78-1.42-1.78-3.32a17.17,17.17,0,0,1,.61-4.16c1-3.91,3.88-10.39,7.75-17.69-10.8-1.16-15.2-4-15.2-6.47,0-2,3.13-3.72,8.19-3.72A33.07,33.07,0,0,1,88,61c8.39-14.53,19.14-29.82,26.15-34.15a4.94,4.94,0,0,1,2.58-.82A3.21,3.21,0,0,1,120,29.18a2.91,2.91,0,0,1-.08.66c-.12.49-.68.7-1.25.7s-1.29-.25-1.29-.62l0-.12a3.35,3.35,0,0,0,.26-1.07c0-.23-.07-.4-.31-.4a.78.78,0,0,0-.33.08c-5.67,2.4-17.43,18.41-26.7,33.5a55.6,55.6,0,0,1,10.1,5.79,21.37,21.37,0,0,0,9.65-2.86,305.63,305.63,0,0,0,7.73-31.38c.15-.83.37-1.18.65-1.18s.57.32.89.84a2.82,2.82,0,0,1,.57,1.53c0,.67-.45,1.18-.69,2.29-2.22,9.61-4.74,18-7.13,26.31a6.57,6.57,0,0,0,1.31-1.77,1,1,0,0,1,.81-.58.43.43,0,0,1,.47.46,2,2,0,0,1-.5,1.08A12.81,12.81,0,0,1,111.66,65c-1.45,5.07-2.82,10.16-4,15.52l0,.4c0,2.9-1.74,3.08-1.74,3.08l-.17,0c-.39,0-.69-.34-.69-1a3.73,3.73,0,0,1,.13-.89c.36-1.31.71-2.62,1.08-3.93-.89-3.44-2.23-6.45-5.48-8.94-1.58.15-4.43.23-6,.25h-.6c-3,0-5.67-.11-8.07-.3-4.2,7.36-7.41,13.86-8.42,17.54a5.16,5.16,0,0,0-.22,1.48,4.35,4.35,0,0,0,1,2.77,2.74,2.74,0,0,1,.63,1.66,1.46,1.46,0,0,1-1.56,1.56A2.91,2.91,0,0,1,77.08,94.09ZM87.44,62a34.59,34.59,0,0,0-11.51-2.37c-3.3,0-5.24.87-5.24,2,0,1.69,4.07,4,14,5.34Q86,64.55,87.44,62Zm11.44,5.86a58.92,58.92,0,0,0-9.13-4.93c-.89,1.48-1.77,2.92-2.6,4.36q3,.31,6.71.52c.84,0,2.22.06,3.44.06Zm10.84-1.64A28,28,0,0,1,102,68.89c2.57,2.2,4.3,4.75,4.7,7.65C107.67,73.11,108.69,69.7,109.72,66.22Z"/><path class="cls-2" d="M115.66,90.86c-1.35-2-1.87-5-1.87-8.52,0-11.5,5.69-28.89,7.6-37.59.88-4-.75-5.3,2.8-8.29a3.84,3.84,0,0,1,2.13-1.07c.52,0,.84.33.84,1.07a5.86,5.86,0,0,1-.44,2c-1.77,4.72-11.56,33.19-11.56,46.2,0,4,.9,6.48,3.21,6.48h.1a.28.28,0,0,1,.3.31,1.08,1.08,0,0,1-1.09,1C117.13,92.38,116.43,92,115.66,90.86Z"/><path class="cls-2" d="M123.67,69.41a3.6,3.6,0,0,1-1-2.62c0-3.51,3.68-8,5.9-8.54a4.51,4.51,0,0,1,1.11-.13,2.34,2.34,0,0,1,2.42,1.24,2.24,2.24,0,0,1,.1.63c0,2.68-5.46,4.93-5.63,5.05-.62.48-.86,1.86-.86,2.89a4.61,4.61,0,0,0,0,.68c.22,1.57,1.28,2.19,2.79,2.19,4.66,0,13.56-5.9,14.75-7.32a10.65,10.65,0,0,1,1.78-1.38h.08c.12,0,.17,0,.17.11,0,.3-.91,1.17-1,1.33-3.66,3.21-10.32,7.78-15.67,7.78A6.7,6.7,0,0,1,123.67,69.41Zm7.45-9c0-.18-.12-.31-.45-.32-1,.26-3.83,3.25-3.83,3.92a.29.29,0,0,0,0,.1h0C127.44,64.16,131.12,61.42,131.12,60.45Z"/><path class="cls-2" d="M131.35,93.54a2.47,2.47,0,0,1-1-2.27c0-5,7.36-15.45,9.76-17.09.71-.67.92-1,1-1.4.52-2,2.31-10.39,3.37-15.39.49-2.28,1.51-3.78,2.59-3.78a1.49,1.49,0,0,1,1.09.56c-1.66,3.95-3.11,14.78-4.43,17,3.3-3.3,10.43-8.87,12.82-8.87a.69.69,0,0,1,.79.65c0,.41-9.13,4.29-13.41,9.6-1.21,1.31-4,21.46-10.72,21.46A4.07,4.07,0,0,1,131.35,93.54Zm9.1-17.86c-3.14,1.55-9.08,11.27-9.08,15.86a4.1,4.1,0,0,0,.1,1C136.09,92.09,139.82,79,140.45,75.68Zm7.64-28c0-.65.47-1.42,1.11-1.42.83,0,1.18.46,1.18.95a1.37,1.37,0,0,1-1.45,1.3A.76.76,0,0,1,148.09,47.69Z"/><path class="cls-2" d="M223.88,32.24c1.7,2.33-4,10.77-5,12.11-3.32,10.31-9.17,28.05-9.67,38.67-.74,15.9,13.51-19.86,14.78-20.69.77-.49,0,1.52-.14,1.8-1.44,3.51-15.79,38-16.21,18.46a73.09,73.09,0,0,1,1.62-14.47c.85-3.07,1.66-6.15,2.51-9.21-1.45,3.16-3.4,7.28-5.6,9.72a3.7,3.7,0,0,1-5.12.2c-1.29-1.3-.5-4.93,1.25-8.24-4.05,4.4-9,10.07-11.44,9.56-4.09-.86-1.89-7.87-3.91-6.73-2.63,1.5-4.56,5.79-5.7,7.28a1.34,1.34,0,0,1-1.75-.32c-1.31-2.19,1.72-8.53,2.49-11.53.93-3.67-9.17,9.81-13.41,8.74-4.42-1.1-2.52-5.31-5.18-3-2,1.68-6.23,7.22-8.67,7.27-1.73,0-2.28-2.42-1.7-4.17,1.11-3.38,5.5-8.49,9-9.4,3.13-.78,4.77,2.82,3.63,2.67-3-.4-9.06,5.29-9.79,8.48-.81,3.5,3.22-2,7-5.48,5.19-4.8,4.25,1,6.47,2.46s9.61-7.19,11.9-9.25c2.51-2.25,3.91.45,3.29,3s-2.81,6.16-2.78,7.93c1.38-1.8,3-4.28,4.91-5.42,4.71-2.72,2.89,5.64,4.29,6.42,1.74,1,8.47-7.42,13.58-11.85,1.68-2,3.65-3.24,5.5-2.84.48.11,1.39,1.93,0,2.44-2.2.83-6.6,9-6.74,10.54-.39,4.21,3.51-1.74,5.36-4.8a77.63,77.63,0,0,0,6.54-15.2c1.8-5.8,3.57-11.31,5.43-14.19a3.21,3.21,0,0,1,2.16-1.53A1.29,1.29,0,0,1,223.88,32.24Zm-2,8.92c.38-.85,4-6.93,3.39-7.81,0,0,0,0-.06,0C224.61,33.29,222.05,40.68,221.88,41.16Z"/><path class="cls-2" d="M223.79,73.58a2.09,2.09,0,0,1-1.63-1.46,6.2,6.2,0,0,1-.14-1.57,48.61,48.61,0,0,1,1.61-11c.42-1.4,1.14-1.9,1.8-1.9A1.61,1.61,0,0,1,227,59.14a.72.72,0,0,1,0,.25c-.61,2.21-2.58,8.45-2.58,10.76a1.62,1.62,0,0,0,.12.71c.43-.17,2.9-11,6.76-11l.25,0c2,.26,2.8,2.71,5.55,2.71a6.76,6.76,0,0,0,2.51-.56,1.89,1.89,0,0,1,.68-.17.36.36,0,0,1,.4.39,1.58,1.58,0,0,1-.35.87,4.77,4.77,0,0,1-2.33.67c-2.66,0-4.29-2.71-5.74-2.91l-.14,0c-2.37,0-5.63,8.38-6.34,10.32-.45,1.2-.51,2.47-1.53,2.47A1.45,1.45,0,0,1,223.79,73.58Z"/><path class="cls-2" d="M234.7,70.66a2.52,2.52,0,0,1,0-.48c0-3.48,6.42-11.22,11.05-11.22a5.35,5.35,0,0,1,.58,0,2.37,2.37,0,0,1,2.19,1.84.63.63,0,0,1-.49.64c-2.9.86-9.47,5.91-10.19,9.1a2.32,2.32,0,0,0-.08.56c0,.28.09.41.26.41,1.46,0,8.76-9.33,11.78-9.33a1,1,0,0,1,.8.33,2.82,2.82,0,0,1,.71,2,18.69,18.69,0,0,1-.52,3.23,5.92,5.92,0,0,0-.14,1.22c0,1.14.49,1.6,1.27,1.6,3.24,0,11.54-7.77,11.58-7.88.59-.62,1-.93,1.23-.93a.12.12,0,0,1,.13.14,2.44,2.44,0,0,1-.59,1.08c-1.54,2-9.57,8.75-13.75,8.75-1.49,0-2.49-.87-2.52-3.13v-.06c0-1.42.46-2.83.51-4.25v-.06c0-.19-.05-.28-.17-.28s-.59.26-1.23.82c-2.59,2.21-4.7,6.08-7.72,7.89a3.17,3.17,0,0,1-1.66.48A3,3,0,0,1,234.7,70.66Z"/><path class="cls-2" d="M272.59,89.81v-.2a95.46,95.46,0,0,1,2.6-15.35c-2.21-.06-4.59-.23-7.11-.55-1.28-.16-1.68-.6-1.68-1a1,1,0,0,1,.28-.64c.34-.4,1.42-.54,2.72-.54a43.71,43.71,0,0,1,6.3.6C280,54.4,287.63,31.61,292,28.64a2.13,2.13,0,0,1,1.09-.47h0c.32,0,.48.24.48.67,0,1.23-1.22,3.91-2.79,6.22-.28.42-.52.59-.86.59a2.29,2.29,0,0,1-.77-.17c-1.2,2.05-8.05,23.08-11.21,36.7,1,0,2.05.11,3.06.2,2-4.2,4.08-8.23,6.7-13C296,44.38,302.47,39,306.52,39c3.13,0,4.82,3.22,4.82,7.69,0,9.08-7,23.38-23.12,26.57a51.93,51.93,0,0,1,5.66,1.25,47.43,47.43,0,0,1,17.46,9,2.07,2.07,0,0,1,.79,1.43.62.62,0,0,1-.09.34,1,1,0,0,1-.82.42,2.21,2.21,0,0,1-1.35-.62,4,4,0,0,1-.77-1.32,3.14,3.14,0,0,0-1.24-1.42A57.65,57.65,0,0,0,284,73.88c-.83.1-1.72.18-2.64.24-2.84,6-5.28,12.18-5.81,16.28-.09,1.46-.68,2.09-1.31,2.09C273.45,92.49,272.59,91.46,272.59,89.81Zm7.58-15.61c-.87,0-1.77.08-2.68.08a41,41,0,0,0-1.14,7.62,7.27,7.27,0,0,0,0,.87C277.7,79.67,278.92,76.88,280.17,74.2Zm29.42-28.44c0-3.32-1.23-5.59-3.53-5.63H306c-3.56,0-9.58,5.28-17.54,20-1.78,3.31-4.09,7.68-6.26,12.22C301.4,69.93,309.59,54.34,309.59,45.76Z"/><path class="cls-2" d="M332.3,66.22c.61-.55,4.21-4.85,6-4.29.77.24.6.71.47,1.34-.66,3.4-3.38,14.58,11.1-.74,1.17-1.17,1.16-.31.94.08-1.14,2-11.88,12.14-15,8.43-2.08-2.51.58-8.08-1-6.22-.94,1.14-1.74,2.48-2.48,3.39s-2.14,1.51-2.54-.25,3.86-13.16,4.54-15.73c.17-.62.23-.88-.08-.82-2.4.47-9,15-9.74,18-.06.23-.8,2.63-.82,2.68a1.13,1.13,0,0,1-2-.62c-.24-2.4,2-10.36,3.3-13.5-3.79,1.83-8.28,2.46-8.76,2.24-.12-.06-.06.56,0,.9,1.42,3.11.6,8.85-2.43,10a2.63,2.63,0,0,1-2.26,0c-4-1.72-1-9.1.92-10.72a1.92,1.92,0,0,1,2.24-.29c-.28-.74-.28-1.18,0-1.43s.22-.55.78-.08c2.74,2.27,9.07-1.3,10.84-2.23h0c.75-.41,1.57-.29,1.38,1.57-.12,1.34-.9,1.49-1.32,2.63a31.09,31.09,0,0,0-1.59,5.55c1.68-3.28,6.53-14.86,9.54-15.69a2.43,2.43,0,0,1,.55-.08C338.64,50.37,332.36,63.73,332.3,66.22Zm-18.91,4.36c2.17-1.26,3.34-7,2.12-9.07C312.73,61.91,310.87,72.06,313.39,70.58Z"/><path class="cls-2" d="M373.2,61.7c-1,3.32-2.35,8.25-1.8,9.19.45-.17,3-11.53,7-11,2.5.3,3.17,4.09,8.12,2.15,1.5-.6,1.1.6.72,1.11-4.13,2.28-6.25-2-8.1-2.26-2.4-.33-5.77,8.36-6.51,10.34-.51,1.34-.53,2.82-2,2.42a2.08,2.08,0,0,1-1.63-1.46c-1-3.19,2.81-15.26,1.46-14.18-5,3.95-15.6,17.24-21.39,11.45-3.23-3.23,2-10.56,4.9-11.21,1-.23,3.08-.24,3.54,1.11,1,3-5.37,5.58-5.54,5.71-.77.6-1,2.2-.83,3.21.94,6.6,15.62-8.09,19-11.14a3.1,3.1,0,0,1,2-1C373.91,56.08,373.73,59.88,373.2,61.7Zm-20.86,2.46c.28.31,5.87-3.91,3.8-4C355,60.4,352,63.76,352.34,64.16Z"/><path class="cls-2" d="M386.3,71.12a3.54,3.54,0,0,1-2-3.54c0-2.76,1.65-6.11,2.9-7.13a2,2,0,0,1,1.31-.54,2,2,0,0,1,.9.23,3,3,0,0,1-.21-.91.71.71,0,0,1,.2-.52c.09-.09.15-.29.35-.29a.74.74,0,0,1,.43.23,13.92,13.92,0,0,0,9,3.35c.43,0,.64.21.64.42s-.18.37-.54.4l-.49,0c-2.94,0-7.36-2.38-7.85-2.62h0s-.06.08-.06.22a4,4,0,0,0,.09.68,8.63,8.63,0,0,1,.67,3.52c0,2.76-1,5.67-3.1,6.45a3.22,3.22,0,0,1-1.17.25A2.73,2.73,0,0,1,386.3,71.12Zm1.81-.57c1.55-.91,2.58-4.17,2.58-6.67a4.8,4.8,0,0,0-.48-2.37c-1.86.26-3.31,4.87-3.31,7.45,0,1,.24,1.73.76,1.73A1,1,0,0,0,388.11,70.55Z"/></g></g></svg>