<svg xmlns="http://www.w3.org/2000/svg" viewBox="0 0 563.21 200.91"><defs><style>.cls-1{fill:#f6f4f2;}</style></defs><g id="Layer_2" data-name="Layer 2"><g id="Layer_11" data-name="Layer 11"><path class="cls-1" d="M84.47,156.65v.71H67.29v-.71c2.59,0,3.5-1.34,2.85-3L58,122.28H17.42L7,153.6c-.58,1.74.42,3.05,3,3.05v.71H0v-.71c2.86,0,5-1.42,5.73-3.58L38.66,54.28h1.43l38.42,98.79A6.13,6.13,0,0,0,84.47,156.65Zm-27.08-35.8L36.12,66.17,17.9,120.85Z"/><path class="cls-1" d="M166.28,145.91H167l-4.3,11.45h-73v-.71c2.87,0,4.3-1.44,4.3-3.58V58.57c0-2.15-1.43-3.58-4.3-3.58v-.71h17.18V55c-2.86,0-4.29,1.43-4.29,3.58v97.36h51.54C162,155.93,164.63,149.53,166.28,145.91Zm-3.58-5.73H118.32v-.72c2.86,0,4.29-1.43,4.29-3.57V58.57c0-2.15-1.43-3.58-4.29-3.58v-.71H135.5V55c-2.87,0-4.3,1.43-4.3,3.58v80.18h22.91c7.87,0,10.52-6.4,12.17-10H167Z"/><path class="cls-1" d="M286.51,130.06c0,19.54-20.39,28.73-36.67,28.73-7.11,0-19.55-1.57-29-8.75L219,135.49a32.45,32.45,0,0,0,30.86,21.87c15.09,0,27.1-9.54,27.1-24.7,0-31.13-53.66-25.89-55.17-55.1-.91-17.49,12.61-24.71,29.5-24.71a39.46,39.46,0,0,1,26.41,9.3L279.11,75C275,63.53,266.42,54.28,251.27,54.28c-14,0-22.21,8.28-22.07,19.75C229.51,98.81,286.51,95.37,286.51,130.06Z"/><path class="cls-1" d="M378.89,156.65v.71H359.56v-.71c2.86,0,2.58-1.43.86-3.58l-38.64-48.3-13,17.11v31.19c0,2.14,1.44,3.58,4.3,3.58v.71H295.85v-.71c2.86,0,4.29-1.44,4.29-3.58V58.57c0-2.15-1.43-3.58-4.29-3.58v-.71H313V55c-2.86,0-4.3,1.43-4.3,3.58V120l46.84-61.44c1.64-2.15,1.84-3.58-1-3.58v-.71h10V55A9.94,9.94,0,0,0,357,58.57L326.84,98.14l44.29,54.93h0A10.51,10.51,0,0,0,378.89,156.65Z"/><path class="cls-1" d="M393.7,58.57v94.5c0,2.14,1.44,3.58,4.3,3.58v.71H380.82v-.71c2.86,0,4.29-1.44,4.29-3.58V58.57c0-2.15-1.43-3.58-4.29-3.58v-.71H398V55C395.14,55,393.7,56.42,393.7,58.57Z"/><path class="cls-1" d="M486.26,54.28V55c-2.86,0-4.3,1.43-4.3,3.58v98.79h-1.43L414.67,58.57v94.5c0,2.14,1.43,3.58,4.3,3.58v.71H409v-.71c2.86,0,4.29-1.44,4.29-3.58V58.57c0-2.15-1.43-3.58-4.29-3.58v-.71h12.88l58.7,87.35V58.57c0-2.15-1.43-3.58-4.29-3.58v-.71Z"/><path class="cls-1" d="M563.21,130.06c0,19.54-20.39,28.73-36.67,28.73-7.11,0-19.54-1.57-28.94-8.75l-1.92-14.55a32.45,32.45,0,0,0,30.86,21.87c15.09,0,27.1-9.54,27.1-24.7,0-31.13-53.65-25.89-55.16-55.1-.91-17.49,12.6-24.71,29.49-24.71a39.43,39.43,0,0,1,26.41,9.3L555.82,75C551.65,63.53,543.13,54.28,528,54.28c-14,0-22.2,8.28-22.06,19.75C506.21,98.81,563.21,95.37,563.21,130.06Z"/><path class="cls-1" d="M61.77,184.83a6.29,6.29,0,0,1,6.2,4H65.88a4.22,4.22,0,0,0-4.11-2.52c-2.8,0-4.89,2-4.89,5.32S59,197,61.77,197a4.22,4.22,0,0,0,4.11-2.5H68a6.28,6.28,0,0,1-6.2,4,6.84,6.84,0,0,1,0-13.67Z"/><path class="cls-1" d="M74.36,185h1.75v8.47c0,2.45,1.32,3.51,3.3,3.51s3.28-1.06,3.28-3.51V185h1.75v8.45a5,5,0,1,1-10.08,0Z"/><path class="cls-1" d="M95.51,185c3.15,0,4.65,1.75,4.65,3.94A3.77,3.77,0,0,1,97,192.78l3.36,5.6H98.24l-3.19-5.47H92.94v5.47H91.2V185Zm0,1.44H92.94v5.07h2.57c2,0,2.85-1.08,2.85-2.57S97.51,186.44,95.51,186.44Z"/><path class="cls-1" d="M111,198.52c-2.69,0-4.59-1.5-4.63-3.71h1.86A2.49,2.49,0,0,0,111,197c1.69,0,2.68-1,2.68-2.23,0-3.61-7.23-1.31-7.23-6.28,0-2.2,1.78-3.7,4.43-3.7s4.22,1.4,4.44,3.43h-1.92a2.43,2.43,0,0,0-2.6-1.93c-1.44,0-2.57.71-2.57,2.15,0,3.45,7.22,1.3,7.22,6.25C115.4,196.63,113.84,198.52,111,198.52Z"/><path class="cls-1" d="M127.88,198.52a6.84,6.84,0,1,1,6.71-6.84A6.6,6.6,0,0,1,127.88,198.52Zm0-1.52c2.82,0,4.93-2.05,4.93-5.32s-2.11-5.32-4.93-5.32-4.94,2-4.94,5.32S125.05,197,127.88,197Z"/><path class="cls-1" d="M161,191.72c0,4.15-2.71,6.66-7.11,6.66H149.7V185h4.16C158.26,185,161,187.57,161,191.72Zm-7.11,5.22c3.5,0,5.32-2,5.32-5.22s-1.82-5.3-5.32-5.3h-2.42v10.52Z"/><path class="cls-1" d="M174.3,186.42h-5.45v4.47h4.88v1.44h-4.88v4.61h5.45v1.44h-7.19V185h7.19Z"/><path class="cls-1" d="M189.75,185.1h1.89l4.91,11,4.91-11h1.87v13.28h-1.75v-9.9l-4.42,9.9h-1.22l-4.44-9.92v9.92h-1.75Z"/><path class="cls-1" d="M218,195.41h-5.84l-1.07,3h-1.85l4.84-13.3h2l4.81,13.3H219.1Zm-2.92-8.18L212.69,194h4.84Z"/><path class="cls-1" d="M236.51,197.56l3.38,3.35h-2.27L235,198.25a7.78,7.78,0,0,1-2,.27,6.84,6.84,0,1,1,6.72-6.84A6.69,6.69,0,0,1,236.51,197.56ZM233,197c2.82,0,4.93-2.05,4.93-5.32s-2.11-5.32-4.93-5.32-4.93,2-4.93,5.32S230.14,197,233,197Z"/><path class="cls-1" d="M245.82,185h1.74v8.47c0,2.45,1.33,3.51,3.31,3.51s3.28-1.06,3.28-3.51V185h1.75v8.45a5,5,0,1,1-10.08,0Z"/><path class="cls-1" d="M262.65,185h1.75v13.38h-1.75Z"/><path class="cls-1" d="M273,185v12h4.68v1.42h-6.43V185Z"/><path class="cls-1" d="M285.09,185v12h4.68v1.42h-6.43V185Z"/><path class="cls-1" d="M303.38,195.41h-5.84l-1.07,3h-1.84l4.83-13.3h2l4.82,13.3h-1.84Zm-2.92-8.18L298,194h4.84Z"/><path class="cls-1" d="M317.22,185H319v9.89a3.45,3.45,0,0,1-3.7,3.63,3.51,3.51,0,0,1-3.73-3.77h1.75c0,1.23.6,2.21,2,2.21a1.85,1.85,0,0,0,1.94-2.07Z"/><path class="cls-1" d="M333.46,186.42H328v4.47h4.88v1.44H328v4.61h5.46v1.44h-7.2V185h7.2Z"/><path class="cls-1" d="M353.22,192.79h-2.57v5.59h-1.74V185h4.31c3.15,0,4.63,1.73,4.63,3.92C357.85,191,356.55,192.79,353.22,192.79Zm0-1.43c2,0,2.85-1,2.85-2.44s-.85-2.48-2.85-2.48h-2.57v4.92Z"/><path class="cls-1" d="M368.18,185c3.14,0,4.64,1.75,4.64,3.94a3.77,3.77,0,0,1-3.19,3.84l3.36,5.6H370.9l-3.19-5.47H365.6v5.47h-1.74V185Zm0,1.44H365.6v5.07h2.58c2,0,2.84-1.08,2.84-2.57S370.17,186.44,368.18,186.44Z"/><path class="cls-1" d="M385.43,198.52a6.84,6.84,0,1,1,6.72-6.84A6.61,6.61,0,0,1,385.43,198.52Zm0-1.52c2.82,0,4.94-2.05,4.94-5.32s-2.12-5.32-4.94-5.32-4.93,2-4.93,5.32S382.61,197,385.43,197Z"/><path class="cls-1" d="M398.29,185h7.56v1.42H400v4.51h4.72v1.42H400v6h-1.75Z"/><path class="cls-1" d="M419,186.42h-5.45v4.47h4.87v1.44h-4.87v4.61H419v1.44h-7.2V185H419Z"/><path class="cls-1" d="M429.73,198.52c-2.69,0-4.59-1.5-4.63-3.71H427a2.49,2.49,0,0,0,2.77,2.23c1.69,0,2.69-1,2.69-2.23,0-3.61-7.24-1.31-7.24-6.28,0-2.2,1.78-3.7,4.43-3.7s4.23,1.4,4.44,3.43h-1.92a2.42,2.42,0,0,0-2.59-1.93c-1.44,0-2.58.71-2.58,2.15,0,3.45,7.22,1.3,7.22,6.25C434.18,196.63,432.63,198.52,429.73,198.52Z"/><path class="cls-1" d="M440.59,185h1.75v13.38h-1.75Z"/><path class="cls-1" d="M455.22,198.52a6.84,6.84,0,1,1,6.72-6.84A6.61,6.61,0,0,1,455.22,198.52Zm0-1.52c2.82,0,4.93-2.05,4.93-5.32s-2.11-5.32-4.93-5.32-4.93,2-4.93,5.32S452.4,197,455.22,197Z"/><path class="cls-1" d="M478.6,185v13.4h-1.75l-7-10.65v10.65h-1.74V185h1.74l7,10.64V185Z"/><path class="cls-1" d="M493.32,195.41h-5.84l-1.07,3h-1.84l4.83-13.3h2l4.82,13.3h-1.85Zm-2.92-8.18L488,194h4.84Z"/><path class="cls-1" d="M503.93,185v12h4.69v1.42h-6.43V185Z"/><rect class="cls-1" x="247.31" width="72.49" height="3.74"/></g></g></svg>