<svg xmlns="http://www.w3.org/2000/svg" viewBox="0 0 311.57 175.52"><defs><style>.cls-1{fill:#f6f4f2;}.cls-2{fill:#252424;}</style></defs><g id="Layer_2" data-name="Layer 2"><g id="Layer_8" data-name="Layer 8"><path class="cls-1" d="M71.83,104.43c0,20.67-15.52,37.43-35.91,37.43S0,125.1,0,104.43,15.52,67,35.92,67,71.83,83.75,71.83,104.43Zm-7.08,0C64.75,84,52.68,68,35.92,68S7.08,84,7.08,104.43s12.07,36.42,28.84,36.42S64.75,124.82,64.75,104.43Z"/><path class="cls-1" d="M133,68v.51c-2,0-3,1-3,2.53v69.81h-1L82.41,71v66.77c0,1.52,1,2.53,3,2.53v.51H78.36v-.51c2,0,3-1,3-2.53V71c0-1.52-1-2.53-3-2.53V68h9.11L129,129.73V71c0-1.52-1-2.53-3-2.53V68Z"/><path class="cls-1" d="M183.2,132.76l-3,8.09H140.7v-.51c2,0,3-1,3-2.53V71c0-1.52-1-2.53-3-2.53V68h12.14v.51c-2,0-3,1-3,2.53v68.8h24.28c5.56,0,7.43-4.52,8.6-7.08Zm-10.63-4H160.43v-.51c2,0,3-1,3-2.53V71c0-1.52-1-2.53-3-2.53V68h12.14v.51c-2,0-3,1-3,2.53v54.63c0,1.52,1,2.53,3,2.53Z"/><path class="cls-1" d="M242.06,68v.51c-2,0-3,1-3,2.53v69.81h-1L191.48,71v66.77c0,1.52,1,2.53,3,2.53v.51h-7.08v-.51c2,0,3-1,3-2.53V71c0-1.52-1-2.53-3-2.53V68h9.1L238,129.73V71c0-1.52-1-2.53-3-2.53V68Z"/><path class="cls-1" d="M294.79,132.76h.5l-3,8.09H249.77v-.51c2,0,3-1,3-2.53V71c0-1.52-1-2.53-3-2.53V68h39.45l3,8.1h-.51c-1.16-2.56-3-7.08-8.6-7.08H258.87v34.9h21.25c1.52,0,2.53-1,2.53-3h.5V108h-.5c0-2-1-3-2.53-3H258.87v34.91h27.32C291.75,139.84,293.62,135.32,294.79,132.76Z"/><path class="cls-2" d="M222.92,106.85c1.57,4.14.16,5.33-1.2,7.89-3.38,6.32-19.69,59.47-8.37,59.18,1.32,0-.7,3.78-3.43-.28-6.23-9.25.72-32.27,5.59-50.8-9.63,13.73-26.92,37.31-28.92,25.16-.82-5,1.32-12.36,5.92-15.92,2.87-2.19,5.46-1.18,6.32,2,.5,1.81-3.09,4.58-2.44.25.27-1.7-.1-2.16-1.36-.8-2,2.23-4.91,8.78-5.46,13.35-1.2,10,17.29-14,26.59-26.59,1.24-4.76,2.28-9.17,2.85-12.88.34-2.24,1-3.17,1.74-3.19S222.31,105.24,222.92,106.85Z"/><path class="cls-2" d="M215.58,148.65a2.81,2.81,0,0,1-.06-.59c0-4.32,8-13.93,13.72-13.93.24,0,.49,0,.72,0,1.68.24,2.71,1.45,2.71,2.29a.76.76,0,0,1-.61.78c-3.59,1.07-11.75,7.34-12.64,11.29a2.7,2.7,0,0,0-.1.71c0,.34.12.5.33.5,1.81,0,10.87-11.58,14.61-11.58a1.26,1.26,0,0,1,1,.42,3.48,3.48,0,0,1,.88,2.46,23,23,0,0,1-.65,4,8.19,8.19,0,0,0-.17,1.5c0,1.42.61,2,1.59,2,4,0,14.31-9.65,14.36-9.78.73-.76,1.26-1.15,1.53-1.15q.15,0,.15.18a3.11,3.11,0,0,1-.72,1.33c-1.91,2.49-11.88,10.85-17.06,10.85-1.85,0-3.1-1.07-3.13-3.87V146c0-1.76.57-3.52.63-5.27v-.08c0-.23-.06-.34-.21-.34s-.73.32-1.53,1c-3.21,2.75-5.83,7.54-9.57,9.8a4,4,0,0,1-2.07.59A3.77,3.77,0,0,1,215.58,148.65Z"/><path class="cls-2" d="M248.41,158.77c0-2,1.09-4.91,3.87-7.79-.8-2.52-3-6.42-3-10,0-2.6,1.11-5,4.66-6.69a4.7,4.7,0,0,1,1.9-.48h0c1.79,0,2.65,1.67,2.65,3.86,0,.21,0,.44,0,.67a1.57,1.57,0,0,1-1.55,1.36,1,1,0,0,1-1-1.13,4.34,4.34,0,0,1,.6-1.89,4.93,4.93,0,0,0,.59-1.57.16.16,0,0,0-.1-.17.83.83,0,0,0-.32,0,2.36,2.36,0,0,0-1.53.77,8,8,0,0,0-2.14,5.8,19.6,19.6,0,0,0,1.8,7.53c4.91-5.41,11.4-9.61,15.22-11l.31.26a1,1,0,0,1-.69.77c-3.21,1.49-10.18,6-14.14,11.08a.53.53,0,0,0-.32.48c0,.28.23.61.27,1.07,0,.61.07,1.16.07,1.7a9.51,9.51,0,0,1-2.31,6.51,4.23,4.23,0,0,1-2.87,1.68C249.17,161.56,248.41,160.47,248.41,158.77Zm4.49-3.49a19.2,19.2,0,0,0-.31-3.23c-2.18,1.6-3,5-3.09,6.11v.21c0,1.19.53,1.83,1.18,1.83C251.65,160.2,252.9,158.72,252.9,155.28Z"/><path class="cls-2" d="M267.29,147.1a4.47,4.47,0,0,1-1.26-3.25c0-4.35,4.57-10,7.32-10.6a5.57,5.57,0,0,1,1.37-.15c1.23,0,2.6.32,3,1.52a2.74,2.74,0,0,1,.14.79c0,3.32-6.78,6.11-7,6.26-.77.6-1.07,2.32-1.07,3.6a5.34,5.34,0,0,0,.05.84c.27,1.95,1.59,2.71,3.46,2.71,5.79,0,16.83-7.32,18.3-9.08a13,13,0,0,1,2.22-1.72h.09c.16,0,.21,0,.21.14,0,.38-1.12,1.45-1.28,1.66-4.54,4-12.8,9.65-19.44,9.65A8.35,8.35,0,0,1,267.29,147.1ZM276.54,136c0-.23-.15-.38-.55-.4-1.3.32-4.76,4-4.76,4.87a.21.21,0,0,0,0,.12l.05,0C272,140.59,276.54,137.18,276.54,136Z"/><path class="cls-2" d="M289.64,158.77c0-2,1.09-4.91,3.87-7.79-.8-2.52-3-6.42-3-10,0-2.6,1.11-5,4.67-6.69a4.62,4.62,0,0,1,1.89-.48h0c1.79,0,2.65,1.67,2.65,3.86,0,.21,0,.44,0,.67a1.56,1.56,0,0,1-1.54,1.36,1,1,0,0,1-1.06-1.13,4.34,4.34,0,0,1,.6-1.89,4.93,4.93,0,0,0,.59-1.57.16.16,0,0,0-.1-.17.83.83,0,0,0-.32,0,2.36,2.36,0,0,0-1.53.77,8,8,0,0,0-2.14,5.8A19.6,19.6,0,0,0,296,149c4.91-5.41,11.4-9.61,15.22-11l.31.26a1,1,0,0,1-.69.77c-3.21,1.49-10.18,6-14.14,11.08a.53.53,0,0,0-.32.48c0,.28.23.61.27,1.07.05.61.07,1.16.07,1.7a9.51,9.51,0,0,1-2.31,6.51,4.23,4.23,0,0,1-2.87,1.68C290.4,161.56,289.64,160.47,289.64,158.77Zm4.49-3.49a19.2,19.2,0,0,0-.31-3.23c-2.18,1.6-3,5-3.09,6.11v.21c0,1.19.53,1.83,1.18,1.83C292.88,160.2,294.13,158.72,294.13,155.28Z"/><rect class="cls-1" x="126.42" width="40.64" height="7.12"/></g></g></svg>