<svg xmlns="http://www.w3.org/2000/svg" viewBox="0 0 244.19 169.24"><defs><style>.cls-1{fill:#f6f4f2;}.cls-2{fill:#252424;}</style></defs><g id="Layer_2" data-name="Layer 2"><g id="Layer_8" data-name="Layer 8"><path class="cls-1" d="M71.83,104.43c0,20.67-15.52,37.43-35.91,37.43S0,125.1,0,104.43,15.52,67,35.92,67,71.83,83.75,71.83,104.43Zm-7.08,0C64.75,84,52.68,68,35.92,68S7.08,84,7.08,104.43s12.07,36.42,28.84,36.42S64.75,124.82,64.75,104.43Z"/><path class="cls-1" d="M165.46,68v.51A3.66,3.66,0,0,0,161.62,71L143.2,140.85h-1L117.41,77.68,97.67,140.85h-1L74.36,71h0a3.93,3.93,0,0,0-4-2.53V68H82.49v.51c-1.86,0-2.54.87-2.2,2.18L99.4,132.06l20-64.06h1l24.22,63.53,16-60.8c.29-1.35-.44-2.22-2.32-2.22V68Z"/><path class="cls-1" d="M224.16,68v.51c-2,0-3,1-3,2.53v69.81h-1L173.58,71v66.77c0,1.52,1,2.53,3,2.53v.51h-7.08v-.51c2,0,3-1,3-2.53V71c0-1.52-1-2.53-3-2.53V68h9.11l41.48,61.73V71c0-1.52-1-2.53-3-2.53V68Z"/><path class="cls-2" d="M145.43,165c-1.47-2.17-2-5.39-2-9.23,0-12.47,6.17-31.33,8.24-40.77,1-4.35-.82-5.74,3-9a4.14,4.14,0,0,1,2.3-1.17c.57,0,.92.37.92,1.17a6.51,6.51,0,0,1-.48,2.12c-1.92,5.13-12.54,36-12.54,50.1,0,4.29,1,7,3.49,7h.1a.3.3,0,0,1,.33.33,1.18,1.18,0,0,1-1.18,1.05C147,166.61,146.27,166.21,145.43,165Z"/><path class="cls-2" d="M156.67,143.54a3.2,3.2,0,0,1-2.54-1.47,5.12,5.12,0,0,1-.6-2.52c0-2.08,1-4.34,1.83-6.42.72-1.77,1.77-2.42,2.62-2.42h0a1.37,1.37,0,0,1,1.4,1.38v0c-.23.52-1.3,1.19-1.62,1.94-.87,2-1.88,4.51-1.88,6.39a2.53,2.53,0,0,0,.85,2.12.88.88,0,0,0,.55.16c2.72,0,11.83-6.63,13.25-8,.7-.67,1.2-.95,1.44-.95.08,0,.13.05.13.15a1.63,1.63,0,0,1-.48.82c-2.69,2.34-11.36,8.76-14.94,8.76Zm2.87-18c0-.68.48-1.47,1.13-1.47.94,0,1.35.54,1.35,1.1a1.41,1.41,0,0,1-1.52,1.34A.89.89,0,0,1,159.54,125.53Z"/><path class="cls-2" d="M225.83,107.32c-1.39,4.42-2.93,8.76-4.45,13.12,5.56-.25,11-.3,16,0,1.37.07,6.6.38,6.83,1.34.43,1.71-5.36,1.88-6.39.3-5.76-.22-11.37-.24-16.91-.09-.64,1.81-1.25,3.62-1.86,5.46a107,107,0,0,0-4.92,20.65c-3,25.36,14.12-8.86,15-13.3.28-1.34,2.22-1.31,1.69.21-2.52,7.1-19.33,40.75-18.67,13.42A71.4,71.4,0,0,1,215,131.81c.87-3.14,1.84-6.28,2.78-9.38-5.11,12.33-13.74,30.81-16.6,22.32-.93-2.78,2.22-22.91-7.23-2.71a43.32,43.32,0,0,0-3.64,11.34c-.23,1.87-2.38,1.58-2.93-.47-.69-2.57.3-10,2.22-17.68.63-2.52,1.85-7,3.39-11.75l-.62,0c-2.67,4.24-5.76,9.35-8.77,14.62-.68,8-5.94,23.84-10.63,29.52-2,2.33-4.39,2.35-3.44-1.6,1.15-4.7,4.33-11.67,8.22-19.07.4-.77.8-1.52,1.21-2.29a49.31,49.31,0,0,0,2.22-8.94c1-9-7.37,11.72-11.85,7.24-4.07-4.05,5.63-16.37,12.05-14.34,2,.64,1.57,2,.39,2.37-4.66,1.49-12.54,9-11,11.22,1.27,1.84,7.7-9.83,10.12-9.56a2.76,2.76,0,0,1,2.72,2.72,7.21,7.21,0,0,1,.05.85c2.62-4.56,5.26-8.9,7.63-12.66l-3.94.29c-1.5.28-1.9.2-2.92.35s-1.4-.27-1-.8a1.31,1.31,0,0,1,.8-.29,22,22,0,0,0,3.15.09l4.41-.44c1.09-1.7,2.09-3.27,3-4.65,1.76-4.81,3.77-9.18,5.69-11.22,1.67-1.67,3,2.9-.57,6.27-.5.47-2.12,5-3.54,9.15,6.34-.61,13.67-1.28,21-1.7,1.18-2.87,2.17-5.31,2.79-6.83.71-3.62.48-6.37,3.08-7.44a6,6,0,0,1,2-.55C226,105.82,226.11,106.37,225.83,107.32Zm-55.44,59c-.54,2.24-.25,1.75.66.08,2-3.72,4.65-10.93,6.72-17.53C174.24,155.73,171.41,162.06,170.39,166.33Zm25.7-43.07c-1.1,3.29-2.05,6.23-2.17,6.59-2.7,8.89-4.37,17.92-4.15,21.39a38,38,0,0,1,4.27-12c9.07-16.38,8.62-4.87,9.65,4,.8,7,8.3-9.64,13.14-21.17C209.93,122.31,203.09,122.76,196.09,123.26Zm-3.17-.58.35,0c.12-.33.22-.68.34-1C193.39,122,193.16,122.33,192.92,122.68Z"/><rect class="cls-1" x="92.18" width="40.64" height="7.12"/></g></g></svg>