<svg xmlns="http://www.w3.org/2000/svg" viewBox="0 0 1587.95 297.42"><defs><style>.cls-1{fill:#d38466;}.cls-2{fill:#252424;}</style></defs><g id="Layer_2" data-name="Layer 2"><g id="LANDING"><path class="cls-1" d="M214.73,210.37v1.46H179.91v-1.46c5.8,0,8.2-3,7.49-7.25h0L161.41,16,101.56,211.83h-2.9L33.37,16,12.57,203.12c-.58,4.39,1.94,7.25,7.74,7.25v1.46H0v-1.46c5.8,0,9.19-2.88,9.67-7.25h0L31,11.61c.58-4.37-1.93-7.26-7.74-7.26V2.9H46.43l61.24,179.44L162.5,2.9h23.21V4.35c-5.8,0-8.22,2.94-7.5,7.26h0l26.6,191.51C205.42,207.47,208.92,210.37,214.73,210.37Z"/><path class="cls-1" d="M390,210.37v1.46H355.15v-1.46c5.24,0,7.09-2.71,5.77-6.09l-24.71-63.55H254.07L232.92,204.2c-1.18,3.52.86,6.17,6.16,6.17v1.46H218.77v-1.46c5.8,0,10.15-2.87,11.61-7.25L297.12,2.9H300l77.86,200.22C379.56,207.45,384.17,210.37,390,210.37Zm-54.89-72.54L292,27,255,137.83Z"/><path class="cls-1" d="M599.28,242c-6.55,5.48-14.13,9-29.8,9-29.21,0-63-21.39-83.94-36.34h-.21c-58.49,0-103-48.07-103-107.37S426.84,0,485.33,0s103,48.07,103,107.36c0,57.38-41.67,104.23-97.36,107.21,13,8.27,31.7,17.85,49.79,23.44,29,9,49.74,4.28,64-10.22a3.92,3.92,0,0,1,.66.9C606.83,231.35,603.78,238.27,599.28,242Zm-113.95-30.2c48.08,0,82.7-46,82.7-104.47S533.41,2.9,485.33,2.9s-82.7,46-82.7,104.46S437.26,211.83,485.33,211.83Z"/><path class="cls-1" d="M752.14,2.9V4.35c-5.8,0-8.7,2.9-8.7,7.26V153.79c0,37.72-23.24,60.94-59.49,60.94-39.17,0-68.19-18.86-68.19-60.94V11.61c0-4.36-2.9-7.26-8.7-7.26V2.9h34.82V4.35c-5.8,0-8.71,2.9-8.71,7.26V153.79c0,34.78,17.41,58,50.78,58,34.82,0,56.59-23.26,56.59-58V11.61c0-4.36-2.9-7.26-8.71-7.26V2.9Z"/><path class="cls-1" d="M799.41,11.61V203.12c0,4.35,2.9,7.25,8.71,7.25v1.46H773.3v-1.46c5.8,0,8.7-2.9,8.7-7.25V11.61c0-4.36-2.9-7.26-8.7-7.26V2.9h34.82V4.35C802.31,4.35,799.41,7.25,799.41,11.61Z"/><path class="cls-1" d="M985.54,188.61H987l-8.7,23.22h-148v-1.46c5.8,0,8.71-2.9,8.71-7.25V11.61c0-4.36-2.91-7.26-8.71-7.26V2.9h34.82V4.35c-5.8,0-8.7,2.9-8.7,7.26V208.92H960.88C976.84,208.92,982.2,196,985.54,188.61ZM978.29,177h-90v-1.45c5.81,0,8.71-2.9,8.71-7.25V11.61c0-4.36-2.9-7.26-8.71-7.26V2.9h34.83V4.35c-5.81,0-8.71,2.9-8.71,7.26V174.1h46.43c16,0,21.32-13,24.66-20.31H987Z"/><path class="cls-1" d="M1161.17,210.37v1.46h-34.82v-1.46c5.24,0,7.09-2.71,5.77-6.09l-24.71-63.55h-82.13l-21.16,63.47c-1.17,3.52.86,6.17,6.16,6.17v1.46H990v-1.46c5.81,0,10.15-2.87,11.61-7.25L1068.32,2.9h2.9l77.86,200.22C1150.77,207.45,1155.37,210.37,1161.17,210.37Zm-54.89-72.54L1063.18,27l-36.94,110.82Z"/><path class="cls-1" d="M1277.86,2.9V4.35c-5.81,0-8.71,2.9-8.71,7.26V142.18l0,0c-.46,45.53-22.16,72.52-60.91,72.52-26.16,0-49.32-14.51-49.32-34.79h0v0a5.8,5.8,0,1,1,11.59,0h0c0,18.86,14.62,31.92,37.73,31.92,39.17,0,43.52-34.83,43.52-69.65V11.61c0-4.36-2.9-7.26-8.7-7.26V2.9Z"/><path class="cls-1" d="M1427.7,188.61h1.45l-8.7,23.22H1298.57v-1.46c5.81,0,8.71-2.9,8.71-7.25V11.61c0-4.36-2.9-7.26-8.71-7.26V2.9h113.17l8.71,23.22H1419c-3.35-7.35-8.71-20.32-24.67-20.32h-69.64V105.91h60.94c4.35,0,7.25-2.9,7.25-8.7h1.45v20.31h-1.45c0-5.8-2.9-8.71-7.25-8.71h-60.94V208.92H1403C1419,208.92,1424.35,196,1427.7,188.61Z"/><path class="cls-2" d="M974,295.63c-.56-.87-.82-2.51-.82-4.82,0-18.69,17.16-80.9,26.12-113.06a23.19,23.19,0,0,0,1.12-5.64c0-2.3-1.43-2-2.45-6.65a4.63,4.63,0,0,1-.16-1.18c0-2.36,1.79-3.48,3.84-3.48a5.84,5.84,0,0,1,5.94,5.73l0,.62C1005.86,186,981,264.44,979.75,287.38c6.24-23.81,26-87.36,42.35-112.35,4.55-7,9.06-9.78,12.85-9.78,5.43,0,9.27,5.89,9.27,13.26a23.49,23.49,0,0,1-1.28,7.53c-3.38,9.73-11.27,19.31-12.45,21.87,11.53-2.66,26.94-16.7,31.5-21.2a4.38,4.38,0,0,1,2.66-1.54.74.74,0,0,1,.82.77c0,.67-.56,1.74-1.84,3-9.27,9.42-29.4,23.76-36.92,24.43-2.46,2.35-10.3,14-18,14a7.73,7.73,0,0,1-5.63-2.51c-3.84,9.73-21.92,70.26-23.4,71.79a3,3,0,0,1-2,.72A4.89,4.89,0,0,1,974,295.63Zm45.47-85.52c2.82-1.64,17.26-25.4,17.26-34.72a4.18,4.18,0,0,0-.87-2.92,3.1,3.1,0,0,0-2.25-1.07h0c-9.68,0-28,46-28,48.64C1008.88,213.64,1014.67,210.16,1019.43,210.11Z"/><path class="cls-2" d="M1061.64,223.73a7,7,0,0,1-5.43-4.86,21.77,21.77,0,0,1-.46-5.23c0-9.52,2.56-27.24,5.37-36.46,1.39-4.66,3.79-6.3,6-6.3,2.77,0,5.23,2.51,5.23,4.82a2.34,2.34,0,0,1-.1.82c-2,7.37-8.61,28.11-8.61,35.79a5.48,5.48,0,0,0,.41,2.36c1.44-.57,9.63-36.62,22.48-36.62l.82,0c6.56.88,9.32,9,18.49,9a22.38,22.38,0,0,0,8.35-1.85,5.9,5.9,0,0,1,2.25-.56,1.17,1.17,0,0,1,1.33,1.28,5.21,5.21,0,0,1-1.18,2.92,15.81,15.81,0,0,1-7.73,2.2c-8.86,0-14.29-9-19.1-9.68l-.46-.05c-7.89,0-18.74,27.86-21.1,34.31-1.48,4-1.69,8.25-5.07,8.25A5.54,5.54,0,0,1,1061.64,223.73Z"/><path class="cls-2" d="M1113.62,215.54c-4.77-2.1-6.56-6.61-6.56-11.78,0-9.17,5.48-20.33,9.63-23.71a6.51,6.51,0,0,1,4.35-1.79,6.64,6.64,0,0,1,3,.77,9.31,9.31,0,0,1-.71-3,2.36,2.36,0,0,1,.66-1.74c.31-.3.51-1,1.18-1a2.57,2.57,0,0,1,1.43.77c9.07,7.48,19.26,11.16,29.91,11.16,1.43,0,2.15.67,2.15,1.39s-.61,1.22-1.79,1.33l-1.64.1c-9.78,0-24.48-7.94-26.12-8.71h-.05c-.15,0-.2.26-.2.72a11.48,11.48,0,0,0,.3,2.25,29,29,0,0,1,2.21,11.73c0,9.17-3.43,18.85-10.3,21.46a10.76,10.76,0,0,1-3.89.82A9.11,9.11,0,0,1,1113.62,215.54Zm6-1.9c5.17-3,8.6-13.87,8.6-22.17,0-3.18-.46-6-1.59-7.89-6.19.87-11,16.19-11,24.79,0,3.38.77,5.73,2.51,5.73A3.26,3.26,0,0,0,1119.61,213.64Z"/><path class="cls-2" d="M1142.4,248.31l0-3.84c.62-19.1,6.45-39.69,7.12-43.58a13.35,13.35,0,0,1-1.9-6.35c0-1.89.72-3.38,2.56-3.38a4.06,4.06,0,0,1,1.29.21c6-24,14.85-48.6,24.47-67.09,9.48-18.17,18.39-30.52,25.81-30.52h.36c3.12.21,4.71,3.69,4.71,8.2a21.57,21.57,0,0,1-.31,3.58c-2.15,13.27-8.91,30.73-17.1,46.65-6.45,12.55-18.28,33.19-29.39,42.51,1,1.79,3.38,2.51,6.5,2.51,8.91,0,23.86-6.05,29.65-10.71a3.55,3.55,0,0,1,1.9-.77c.61,0,.87.41.87,1a6.23,6.23,0,0,1-2.72,4.4c-13.82,7.17-24.63,8.55-31,8.55a33.31,33.31,0,0,1-6.56-.56c3,5.69,6.46,25.45,6.46,44,0,13.16-1.74,25.76-6.61,32.47-.66,1-2.61,3.27-3.58,3.48a7.5,7.5,0,0,1-1.44.15C1145.93,279.29,1142.4,264.85,1142.4,248.31ZM1161,227.06c0-10.6-1-19.56-3.43-22.22-2.25,6.4-3.84,36.76-3.84,55.35,0,6.86.25,12.14.72,13.93C1158.07,268.85,1161,245.44,1161,227.06Zm25.14-75c9-17.31,17-36.41,17.93-46.34a35.11,35.11,0,0,0,.2-3.74c0-2.05-.25-3.43-1.07-3.43h-.06c-.66,0-1.69.92-3.17,3.12-2.71,3.84-11.52,22.12-20.07,41s-16.08,38.25-17.06,44.4C1167.39,184.71,1177.12,169.3,1186.18,152.09Z"/><path class="cls-2" d="M1191.41,209.85a11.92,11.92,0,0,1-3.38-8.7c0-11.68,12.24-26.73,19.61-28.42a15.46,15.46,0,0,1,3.69-.41c3.28,0,7,.87,8,4.1a7.28,7.28,0,0,1,.36,2.09c0,8.91-18.18,16.39-18.74,16.8-2,1.59-2.87,6.2-2.87,9.63a14.86,14.86,0,0,0,.15,2.25c.72,5.22,4.25,7.27,9.27,7.27,15.52,0,45.12-19.61,49.06-24.32,1.18-1,5.07-4.51,5.94-4.61h.25c.41,0,.57.1.57.36,0,1-3,3.89-3.43,4.45-12.19,10.66-34.31,25.86-52.13,25.86C1201.6,216.2,1196,214.36,1191.41,209.85Zm24.79-29.8c0-.61-.41-1-1.49-1.07-3.48.87-12.75,10.8-12.75,13.05a.54.54,0,0,0,.1.31l.16,0C1204,192.39,1216.2,183.28,1216.2,180.05Z"/><path class="cls-2" d="M1251.33,241.14c0-5.43,2.92-13.16,10.4-20.89-2.15-6.76-8-17.21-8-26.88,0-7,3-13.47,12.49-17.93a12.35,12.35,0,0,1,5.07-1.28h0c4.82,0,7.12,4.46,7.12,10.35,0,.56,0,1.17,0,1.79a4.17,4.17,0,0,1-4.15,3.63,2.69,2.69,0,0,1-2.81-3,11.63,11.63,0,0,1,1.58-5.07,12.76,12.76,0,0,0,1.59-4.2c0-.25-.1-.41-.26-.46a2.42,2.42,0,0,0-.87-.1,6.29,6.29,0,0,0-4.09,2c-4.25,4.3-5.74,9.93-5.74,15.57,0,7.73,2.77,15.56,4.82,20.17,13.16-14.49,30.57-25.76,40.81-29.39l.82.72a2.67,2.67,0,0,1-1.85,2c-8.6,4-27.29,16-37.89,29.71a1.43,1.43,0,0,0-.87,1.28c0,.76.61,1.63.72,2.86.15,1.64.2,3.13.2,4.56a25.5,25.5,0,0,1-6.2,17.46c-2.86,3.13-5.53,4.51-7.68,4.51C1253.38,248.62,1251.33,245.7,1251.33,241.14Zm12-9.37a50.61,50.61,0,0,0-.82-8.65c-5.83,4.3-8.14,13.52-8.29,16.38v.57c0,3.17,1.43,4.91,3.17,4.91C1260,245,1263.36,241,1263.36,231.77Z"/><path class="cls-2" d="M1309.81,215.49A9.94,9.94,0,0,1,1302,211a16,16,0,0,1-1.84-7.73c0-6.4,3-13.32,5.63-19.72,2.2-5.43,5.43-7.42,8-7.42h.1a4.21,4.21,0,0,1,4.3,4.25v.1c-.71,1.59-4,3.64-5,5.94-2.67,6-5.79,13.83-5.79,19.61,0,2.77.77,5.07,2.61,6.51a2.82,2.82,0,0,0,1.69.46c8.35,0,36.31-20.33,40.66-24.43,2.15-2.05,3.69-2.92,4.41-2.92.25,0,.41.16.41.46a5,5,0,0,1-1.49,2.51c-8.24,7.17-34.82,26.89-45.83,26.89Zm8.81-55.26c0-2.1,1.49-4.5,3.48-4.5,2.87,0,4.15,1.64,4.15,3.38,0,2-1.69,4.09-4.66,4.09A2.74,2.74,0,0,1,1318.62,160.23Z"/><path class="cls-2" d="M1406.4,166.22c4.4.26,6.4,6.61,4.91,12.76-2.09,8.55-9.42,20.63-9.26,26.52,4.61-6,9.93-14.34,16.38-18.08,15.72-9.16,9.32,21.67,14,24.28,7.74,4.35,34.57-22.48,37.85-25.2,2.1-1.74,4-1.84,1.33,1.33-5.58,6.66-29,29.24-41.43,26.63-13.67-2.87-4.15-28.26-10.86-24.47-8.8,5-15.26,19.3-19,24.32-1.34.87-4.61,1-5.89-1.13-4.36-7.27,5.78-28.47,8.29-38.51.67-2.56,1.28-5.07-1.69-3.53-12.85,6.66-28.88,9-30.52,8.19-.41-.2-.2,1.85,0,3,4.66,10.35,2,29.45-8.09,33.29a8.91,8.91,0,0,1-7.53,0c-13.16-5.73-3.48-30.26,3.08-35.64,2.61-2.15,5-2.15,7.37-1-.92-2.46-.87-3.95,0-4.77.46-.46.72-1.84,2.61-.25,8.2,6.76,26-2.2,33.85-6.25.56-.31,2.61-1.59,3.23-1.43a3.23,3.23,0,0,1,1-.11Zm-45.47,47.53c7.22-4.2,11.06-23.36,7.06-30.17C1358.67,184.92,1352.53,218.66,1360.93,213.75Z"/><path class="cls-2" d="M1586.1,101.91c4.2,11.06.41,14.23-3.23,21.09-9.11,17.06-52.89,159.72-22.48,159,3.59-.06-1.89,10.13-9.26-.77-16.14-24.07.92-83,13.87-131.92-18.89,34.83-50.49,73.28-59.66,50.85-2-5,1.18-12.29-5.37-5.68-7.38,7.37-15.42,20-24.38,26.06-5.68,3.85-10.6.62-13.36-6.5-4.2-11,10.24-42.55,26.93-40.15,6.61.93,10.55,7.17,7,8.25-9.12,2.87-23.1,21-23.71,31.59-.72,12.55,15.67-14.79,28-24.52,9.52-7.48,13.57-1,13.62,8.14.16,20.33,37.84-27.65,54.74-62.73,2.92-11.47,5.33-22.07,6.71-31.14.92-6,2.72-8.55,4.66-8.55S1584.46,97.55,1586.1,101.91Z"/></g></g></svg>