<svg xmlns="http://www.w3.org/2000/svg" viewBox="0 0 64.64 66.76"><defs><style>.cls-1{fill:#d38466;}</style></defs><g id="Layer_2" data-name="Layer 2"><g id="Layer_8" data-name="Layer 8"><path class="cls-1" d="M33.24,64.54a1.26,1.26,0,0,0-.92-.38,1.28,1.28,0,0,0-.92.38,1.3,1.3,0,0,0,.92,2.22,1.3,1.3,0,0,0,.92-.38,1.28,1.28,0,0,0,0-1.84Z"/><path class="cls-1" d="M33,38.32a1.31,1.31,0,0,0-1.74.62l-.21.45a1.3,1.3,0,0,0,.61,1.74,1.27,1.27,0,0,0,.56.13,1.3,1.3,0,0,0,1.18-.75l.22-.45A1.31,1.31,0,0,0,33,38.32Z"/><path class="cls-1" d="M17.13,30.77a1.31,1.31,0,0,0-1.85,0,2.78,2.78,0,0,1-3.92,0,1.3,1.3,0,1,0-1.84,1.84,5.4,5.4,0,0,0,7.61,0A1.3,1.3,0,0,0,17.13,30.77Z"/><path class="cls-1" d="M61.19,3.46a11.84,11.84,0,0,0-16.67,0,31,31,0,0,0-4.58-1.83A33.46,33.46,0,0,0,30,0c-7.07,0-13.24,3-16.1,7.75a12.53,12.53,0,0,0-.95,1.95C11.57,11,5.48,17.27,5.48,26.18c0,5.94-2.85,9-4.55,10.36a2.4,2.4,0,0,0,.29,4c.64.36,1.36.71,2.06,1s1.5.72,1.92,1v2.32A2.48,2.48,0,0,1,5,45.8l-.32.79a3.39,3.39,0,0,0,.42,3.28v.28a2.83,2.83,0,0,0,1,2.16v1.53a6,6,0,0,0,6,5.95h3.85a1.3,1.3,0,1,0,0-2.6H12.06a3.35,3.35,0,0,1-3.34-3.35V51.59a1.29,1.29,0,0,0-.79-1.19l-.06,0a.25.25,0,0,1-.14-.22v-.73a1.33,1.33,0,0,0-.28-.81l-.23-.29a.75.75,0,0,1-.11-.75l.33-.79a5.19,5.19,0,0,0,.37-1.91V42.1c0-1.26-1.28-1.87-3.4-2.89-.56-.26-1.13-.54-1.64-.81C4.87,36.69,8.09,33,8.09,26.18a20.09,20.09,0,0,1,4.08-11.6,16.48,16.48,0,0,0,2.06,7c3.34,6.26,9.17,8.88,13.85,11,4.45,2,7,3.27,7,5.89a5.64,5.64,0,0,1-1.32,4.21,3.61,3.61,0,0,1-2.4,1,1.29,1.29,0,0,0-1.29,1.73,18.63,18.63,0,0,0,3.07,5.28,12.55,12.55,0,0,0,9.7,4.91l3.5,10.27a1.31,1.31,0,0,0,1.23.88,1.2,1.2,0,0,0,.42-.07A1.3,1.3,0,0,0,48.81,65L45.36,54.9A26.85,26.85,0,0,0,58.61,39.21,31.69,31.69,0,0,0,59,21.92a11.64,11.64,0,0,0,2.22-1.75A11.82,11.82,0,0,0,61.19,3.46ZM56.13,38.41A24.43,24.43,0,0,1,43.42,53a9.82,9.82,0,0,1-8.22-3.9,16.85,16.85,0,0,1-2-3.1,5.94,5.94,0,0,0,2.37-1.38c1.44-1.38,2.16-3.45,2.14-6.14,0-4.42-4.16-6.28-8.53-8.25-4.54-2-9.7-4.36-12.62-9.84-1.82-3.4-2.25-6.63-1.28-9.46v0a9,9,0,0,1,.84-1.78c2.39-4,7.71-6.48,13.88-6.48h0a31.28,31.28,0,0,1,9.16,1.47c6.65,2.08,11.55,6,14.57,11.54A29.81,29.81,0,0,1,56.13,38.41Zm2.06-19.09A32.29,32.29,0,0,0,56,14.38a25.56,25.56,0,0,0-9.11-9.62A9.21,9.21,0,0,1,59.35,18.33,10.84,10.84,0,0,1,58.19,19.32Z"/><path class="cls-1" d="M32.94,61.07,28.86,54l-.14-4.83a7.93,7.93,0,0,0-7.28-7.67,7.24,7.24,0,0,0-7.09,4.09l-.06.14a8,8,0,0,0,2.83,10l4.07,2.65,4.44,7.69a1.3,1.3,0,0,0,2.26-1.3L23.94,58l1.57-.9,1.57-.91,3.6,6.23a1.3,1.3,0,0,0,2.26-1.3ZM22.2,56l-3.65-2.39a5.33,5.33,0,0,1-1.91-6.73l.07-.13a4.61,4.61,0,0,1,4.15-2.63l.37,0a5.31,5.31,0,0,1,4.88,5.15l.13,4.38Z"/><path class="cls-1" d="M28.66,7.64A1.31,1.31,0,0,0,26.94,7a8.14,8.14,0,0,0-4.67,4.66,8.11,8.11,0,0,0,.78,6.59,1.29,1.29,0,0,0,1.15.69A1.3,1.3,0,0,0,25.35,17a5.51,5.51,0,0,1-.62-4.5A5.62,5.62,0,0,1,28,9.35,1.31,1.31,0,0,0,28.66,7.64Z"/><path class="cls-1" d="M32.36,6h-.08a1.31,1.31,0,0,0,0,2.61h.07a1.31,1.31,0,0,0,0-2.61Z"/></g></g></svg>