<svg xmlns="http://www.w3.org/2000/svg" viewBox="0 0 68.98 69"><defs><style>.cls-1{fill:#d38466;}</style></defs><g id="Layer_2" data-name="Layer 2"><g id="Layer_8" data-name="Layer 8"><g id="Page-1"><g id="_049---Makeup-Compact" data-name="049---Makeup-Compact"><path id="Shape" class="cls-1" d="M26.6,54a12,12,0,0,1-9.16-5.25,1.18,1.18,0,0,0-1-.53A1.15,1.15,0,0,0,15.54,50a14.37,14.37,0,0,0,10.83,6.25h.12A1.15,1.15,0,0,0,26.6,54Z"/><path id="Shape-2" data-name="Shape" class="cls-1" d="M15.45,44.48A12.56,12.56,0,0,1,15,42.39a1.15,1.15,0,1,0-2.29.23,15,15,0,0,0,.54,2.5,1.15,1.15,0,0,0,2.2-.64Z"/><path id="Shape-3" data-name="Shape" class="cls-1" d="M63.25,9.19a5.7,5.7,0,0,0-4.06,1.68L50,20.05a2.32,2.32,0,0,0-2.2.57l-2.93,2.94a26.83,26.83,0,0,0-9.05-5.75c9.09-1.13,17.08-4,17.08-8.62,0-6-13.62-9.19-26.42-9.19S.07,3.22.07,9.19c0,4.59,8,7.48,17,8.62a26.45,26.45,0,1,0,35,18.09l.58-1.62h0a2.29,2.29,0,0,0,1.62-.67l3.25-3.25a2.29,2.29,0,0,0,.67-1.62,2.33,2.33,0,0,0-.08-.59L67.31,19a5.74,5.74,0,0,0-4.06-9.8ZM45.54,47.27a11.93,11.93,0,0,1-3.92-.77L44,42.3a1.15,1.15,0,0,0,0-1.16,1.12,1.12,0,0,0-1-.56,1.14,1.14,0,0,0-1,.6l-2.42,4.35a16.83,16.83,0,0,1-3.05-2.19l4.85-4.85a1.15,1.15,0,0,0-1.63-1.62l-4.85,4.85a17.26,17.26,0,0,1-2.19-3.06L37,36.24a1.14,1.14,0,0,0,.6-1,1.15,1.15,0,0,0-1.71-1l-4.21,2.33a12.14,12.14,0,0,1-.78-3.9L45,27.57l5.59,5.59ZM30.12,30.5a2.28,2.28,0,0,0-1.51,2.17,14.94,14.94,0,0,0,1.51,6.08,20.43,20.43,0,0,0,9.31,9.31,17.3,17.3,0,0,0,1.84.75A16.08,16.08,0,1,1,26.49,26.42a15.75,15.75,0,0,1,8.37,2.37Zm1.64-14.64a2.32,2.32,0,0,0-1.83-.93H23a2.32,2.32,0,0,0-1.83.93c-8.55-.72-13.1-3-13.1-4.37,0-1.61,6.31-4.6,18.38-4.6s18.38,3,18.38,4.6c0,1.4-4.56,3.65-13.11,4.37ZM23,17.23h6.89v2.3H23Zm-20.68-8c0-3.25,10.32-6.89,24.13-6.89S50.61,5.94,50.61,9.19c0,1.13-1.32,2.37-3.71,3.48a2.85,2.85,0,0,0,.26-1.18c0-4.53-10.4-6.9-20.67-6.9S5.81,7,5.81,11.49a3.21,3.21,0,0,0,.26,1.18c-2.39-1.11-3.71-2.35-3.71-3.48ZM50.61,42.5a24.14,24.14,0,0,1-23,24.07V65.48a1.15,1.15,0,1,0-2.29,0v1.09a24.09,24.09,0,0,1-4.6-47.47v.43a2.3,2.3,0,0,0,2.3,2.3h6.89a2.3,2.3,0,0,0,2.3-2.3v-.44a24.18,24.18,0,0,1,11.45,6.53l-6.16,2.22a18.11,18.11,0,0,0-11-3.72,18.38,18.38,0,1,0,17,25.26,13.27,13.27,0,0,0,2,.19h0a2.27,2.27,0,0,0,2.14-1.51l2.81-7.81c.07.75.12,1.5.12,2.25ZM52.69,32l-6.5-6.5,3.25-3.25,6.5,6.5Zm13-14.62-8.93,8.94-4.88-4.88,8.94-8.93a3.53,3.53,0,0,1,4.87,0,3.43,3.43,0,0,1,0,4.87Z"/><path id="Shape-4" data-name="Shape" class="cls-1" d="M43.75,32.8l-.81.82a1.12,1.12,0,0,0-.31,1.11,1.1,1.1,0,0,0,.82.82,1.12,1.12,0,0,0,1.11-.31l.81-.81a1.15,1.15,0,0,0-.5-1.94A1.19,1.19,0,0,0,43.75,32.8Z"/></g></g></g></g></svg>