<svg xmlns="http://www.w3.org/2000/svg" viewBox="0 0 53.96 69.02"><defs><style>.cls-1{fill:#d38466;}</style></defs><g id="Layer_2" data-name="Layer 2"><g id="Layer_8" data-name="Layer 8"><path class="cls-1" d="M50.2,27.69a69.35,69.35,0,0,0-8.4-13.51,1,1,0,0,0-1.59,1.25,67.22,67.22,0,0,1,8.15,13.1,35.79,35.79,0,0,1,3.58,14.83c0,7.25-2.51,13.31-7.27,17.53C40.24,64.83,34,67,27,67c-6.76,0-12.9-2-17.3-5.76a21.92,21.92,0,0,1-7.56-15.3,35.87,35.87,0,0,0,6,.33,1,1,0,0,0,1-1.05,1,1,0,0,0-1-1A32,32,0,0,1,2,43.88a13,13,0,0,1,.13-1.53C3.46,34,7.06,25.59,12.88,17.29A94.23,94.23,0,0,1,26,2.39a1.39,1.39,0,0,1,.54-.31C30.15,8.63,32,14.87,32,20.63c0,6.35-2,11.88-5.69,16A24,24,0,0,1,12,43.88a1,1,0,0,0,.31,2A26,26,0,0,0,27.78,38C31.85,33.49,34,27.5,34,20.63A38.34,38.34,0,0,0,29.84,4.11a104.19,104.19,0,0,1,7.83,8.2,1,1,0,0,0,.77.36A1,1,0,0,0,39.21,11,105.26,105.26,0,0,0,29.32.89,3.54,3.54,0,0,0,27.12,0h0A3.45,3.45,0,0,0,24.6.91,95.92,95.92,0,0,0,11.22,16.13C5.23,24.69,1.51,33.4.16,42a24.51,24.51,0,0,0,8.2,20.74C13.13,66.8,19.74,69,27,69c7.47,0,14.24-2.35,19-6.62,5.21-4.61,8-11.2,8-19A37.82,37.82,0,0,0,50.2,27.69Z"/></g></g></svg>