<?xml version="1.0" encoding="utf-8"?>
<!-- Generator: Adobe Illustrator 25.2.1, SVG Export Plug-In . SVG Version: 6.00 Build 0)  -->
<svg version="1.1" id="Layer_1" xmlns="http://www.w3.org/2000/svg" xmlns:xlink="http://www.w3.org/1999/xlink" x="0px" y="0px"
	 viewBox="0 0 32 32.3" style="enable-background:new 0 0 32 32.3;" xml:space="preserve">
<style type="text/css">
	.st0{fill:#D38466;}
</style>
<g id="Layer_2_1_">
	<g id="Layer_11">
		<path class="st0" d="M30.7,31.7c-0.4,0-0.7-0.2-1-0.4c-2.8-2.8-7.8-7-11.9-10.3c-0.2-0.2-0.2-0.5-0.1-0.7c0.2-0.2,0.5-0.2,0.7-0.1
			c4.1,3.4,9.1,7.6,11.9,10.4c0.2,0.2,0.5,0.2,0.7,0.1c0.2-0.2,0.2-0.5,0.1-0.7C31,30,31,30,31,30c-2.8-2.8-7-7.8-10.7-12.3
			c-0.3-0.3-0.6-0.7-0.9-1l-2.6,3.4c-0.1,0.5-0.5,2.4-1.1,4.5c-0.9,3.3-1.7,5.3-2.5,6c-0.8,0.7-1.9,1.1-3.1,1.1
			c-0.3,0-0.5-0.2-0.5-0.4c0,0,0,0,0,0c0-0.3,0.2-0.5,0.4-0.5c0,0,0,0,0,0c0.9,0,1.8-0.3,2.4-0.9c1.2-1.2,2.7-7.3,3.3-9.9l-4.1-4.1
			c-2.6,0.6-8.7,2.1-9.9,3.3C1.3,19.8,1,20.7,1,21.5C1,21.8,0.8,22,0.5,22c-0.3,0-0.5-0.2-0.5-0.5c0,0,0,0,0,0
			c0-1.1,0.4-2.1,1.1-2.9c0.8-0.7,2.7-1.6,6-2.5c1.4-0.4,2.8-0.7,3.7-0.9c-0.3-0.3-0.6-0.5-0.8-0.7c-0.2-0.2-0.3-0.4-0.3-0.7
			c0-0.3,0.1-0.5,0.3-0.7l0.7-0.7L3.3,4.9C2,3.6,1,2.1,0.1,0.4C0,0.3,0.1,0,0.2-0.1c0.1-0.2,0.4-0.2,0.6-0.1
			c1.6,0.8,3.1,1.9,4.5,3.1l2.4,2.4c0.2,0.2,0.2,0.5,0,0.7C7.6,6.2,7.3,6.2,7.1,6c0,0,0,0,0,0L4.9,3.9L4.3,4.6l7.2,7.2l0.7-0.7
			L8.3,7.3c-0.2-0.2-0.2-0.5,0-0.7c0.2-0.2,0.5-0.2,0.7,0l0,0l3.8,3.8l0.7-0.7c0.2-0.2,0.4-0.3,0.7-0.3c0.3,0,0.5,0.1,0.7,0.3
			c0.4,0.4,0.9,1,1.5,1.7l1.7-1.3C18.6,9.6,27.5,1,30.5-0.1c0.6-0.2,1-0.2,1.3,0.1c0.3,0.3,0.3,0.7,0.1,1.3c-0.4,1.2-2.1,3.5-5,6.7
			c-0.2,0.2-0.4,0.3-0.7,0.1C26,8,26,7.7,26.1,7.5c0,0,0,0,0.1-0.1c3.5-4,4.6-5.7,4.8-6.5c0-0.1,0.1-0.2,0.1-0.3
			c-0.1,0-0.2,0-0.3,0.1c-0.8,0.3-2.7,1.5-7.1,5.4c-2.1,1.8-4,3.6-4.7,4.3l2.2,2.2c0.6-0.7,2.1-2.2,3.7-4c0.2-0.2,0.5-0.2,0.7,0
			c0.2,0.2,0.2,0.5,0,0.7l0,0c-2,2.2-3.8,4.1-4,4.3L20,15.9l1,1.2c3.7,4.4,7.8,9.4,10.6,12.2c0.6,0.5,0.6,1.4,0,2
			C31.4,31.6,31.1,31.7,30.7,31.7L30.7,31.7z M12.7,15.4l3.7,3.7l4.3-5.6l-2.4-2.4L12.7,15.4z M11.8,12.8l-1,1
			c0.3,0.3,0.7,0.6,1.2,1.1l3.6-2.7c-0.6-0.7-1.1-1.2-1.5-1.6l-1,1l0,0l0,0L11.8,12.8L11.8,12.8L11.8,12.8L11.8,12.8z M1.8,1.5
			c0.5,0.9,1.1,1.7,1.8,2.4l0.6-0.6C3.5,2.6,2.7,2,1.8,1.5z M8.3,31.6L8.3,31.6c-4.2-0.8-7.4-4.1-8.1-8.2c-0.1-0.2,0.1-0.5,0.3-0.6
			c0,0,0,0,0,0c0.3-0.1,0.5,0.1,0.6,0.4c0,0,0,0,0,0c0.1,0.4,0.2,0.8,0.3,1.2L5,22.3c0.2-0.1,0.5-0.1,0.6,0.2c0,0,0,0,0,0
			c0.1,0.2,0.1,0.5-0.2,0.6c0,0,0,0,0,0l-3.7,2.2c0.5,1,1.1,2,1.9,2.8c0.3,0.3,0.7,0.6,1,0.9l2.8-3.3c0.2-0.2,0.5-0.2,0.7-0.1
			c0.2,0.2,0.2,0.5,0.1,0.7l-2.7,3.2c0.5,0.3,1.1,0.6,1.7,0.8l1.4-2.1c0.1-0.2,0.4-0.3,0.6-0.1c0,0,0,0,0,0c0.2,0.1,0.3,0.4,0.1,0.6
			c0,0,0,0,0,0l-1.2,1.9l0.2,0c0.3,0.1,0.4,0.3,0.4,0.6C8.7,31.4,8.5,31.6,8.3,31.6z"/>
	</g>
</g>
</svg>
