<svg xmlns="http://www.w3.org/2000/svg" viewBox="0 0 209.67 226.32"><defs><style>.cls-1{fill:#cd8066;}.cls-2,.cls-3{fill:#f6f4f2;}.cls-3{font-size:13.94px;font-family:Sansation-Regular, Sansation;}</style></defs><g id="Layer_2" data-name="Layer 2"><g id="NOSOTROS"><g id="GUIAS"><path class="cls-1" d="M172.91,171.12,159.62,75.45a2.51,2.51,0,0,1,.43-2.11,3.64,3.64,0,0,1,2.84-1h.48V70.7H150.94l-27.06,88.54L93.78,71l-.12-.33H81.24v1.69h.49a3.72,3.72,0,0,1,2.88,1,2.57,2.57,0,0,1,.5,2.13L74.48,171.13c-.22,2-1.81,3.19-4.35,3.19h-.48V176H80.76v-1.69h-.48a3.77,3.77,0,0,1-2.89-.95,2.59,2.59,0,0,1-.5-2.13L87,79.94,119,175.68l.11.33h2.15l29.36-96.07,12.68,91.32a2.46,2.46,0,0,1-.43,2.1,3.6,3.6,0,0,1-2.83,1h-.48V176h18.35v-1.69h-.48C174.82,174.32,173.19,173.15,172.91,171.12Z"/><path class="cls-2" d="M110.08,220.92c-5.11-1.89-8.5-6.28-8.5-11.42,0-5.4,3.77-11.62,13.24-16.59,1-10.51,10.29-46.75,14.3-50.78a1.71,1.71,0,0,1,1-.63c.43,0,.62.58.62,1.48a24.67,24.67,0,0,1-2,8c-.11.26-.26.36-.42.36-.34,0-.74-.53-.89-1.1-2.89,10.47-7.76,27.75-9.27,34.68,2.56-6.18,8.3-19.77,12.31-26.46,1.76-2.92,3.67-4.49,5-4.49,1.12,0,1.9,1.07,1.9,3.32A17.47,17.47,0,0,1,137,161c-1.35,5.86-6.42,12.07-9.41,15.48a16.84,16.84,0,0,1,7.44-1.77c5.63,0,11.2,3,12.87,10.61,4-.38,7.35-.58,9.65-.72.86.14,1.21.39,1.21.69,0,.53-1.16,1.13-2.22,1.13h-.33a30,30,0,0,0-3.84-.19c-1.29,0-2.71,0-4.26.13a16.56,16.56,0,0,1,.1,1.86c0,14.42-17.85,33.6-32.75,33.6A15.34,15.34,0,0,1,110.08,220.92Zm35.4-33.17a11,11,0,0,0,0-1.15c-8.67.83-19.9,3.08-28.4,7.09a24.37,24.37,0,0,1-1.13,3.18,1,1,0,0,1-.79.55c-.59,0-1.14-.79-1.24-1.89a.41.41,0,0,1,0-.16c-7.88,4.08-11.15,9.62-11.15,14.38a9.62,9.62,0,0,0,7.5,9.41,14.31,14.31,0,0,0,3.67.47C127.62,219.63,145.48,202.08,145.48,187.75Zm-.12-2.13c-.88-7.16-5.37-9.74-10.44-9.74a20.48,20.48,0,0,0-8.4,2c-2,2.47-4.28,4.21-5.28,4.21h0c-.19,0-.28-.14-.28-.34l-1.17,2.92a50.72,50.72,0,0,0-2.17,7C126.09,188.29,136.76,186.55,145.36,185.62Zm-10.63-24.87a13.91,13.91,0,0,0,1.25-4.6c0-.79-.26-1.17-.69-1.17-.8,0-2.25,1.4-3.78,4.12-3.34,5.88-9.17,18.74-9.2,19.4A57.11,57.11,0,0,0,134.73,160.75Z"/><path class="cls-2" d="M188.24,184.24c-1.07,3.7-2.6,9.19-2,10.24.5-.19,3.36-12.83,7.83-12.27,2.75.35,3.53,4.56,9,2.4,1.69-.68,1.26.67.81,1.23-4.59,2.53-7-2.25-9-2.52-2.68-.37-6.43,9.32-7.26,11.52-.55,1.48-.57,3.13-2.18,2.68a2.36,2.36,0,0,1-1.83-1.63c-1.05-3.53,3.15-17,1.64-15.77-3.13,2.46-10.15,11.71-14.13,10.71-4.93-1.24-2.82-5.93-5.81-3.37-2.18,1.88-6.93,8-9.65,8.1-1.94.05-2.56-2.7-1.91-4.68,1.24-3.73,6.14-9.46,10.1-10.45,3.49-.9,5.31,3.13,4.06,2.95-3.34-.44-10.13,5.94-11,9.48-.9,3.91,3.61-2.22,7.83-6.12,5.81-5.35,4.73,1.1,7.2,2.75,2.26,1.51,11.37-8.93,12.94-10.32a3.67,3.67,0,0,1,2.2-1.19C189.05,178,188.84,182.23,188.24,184.24Z"/><text class="cls-3" transform="matrix(-0.61, -0.79, 0.79, -0.61, 57.13, 184.87)">M</text><text class="cls-3" transform="translate(45.46 168.19) rotate(-115.28)">A</text><text class="cls-3" transform="translate(38.56 151.68) rotate(-103.76)">K</text><text class="cls-3" transform="matrix(-0.05, -1, 1, -0.05, 35.22, 134.58)">E</text><text class="cls-3" transform="matrix(0.15, -0.99, 0.99, 0.15, 35.15, 118.33)">U</text><text class="cls-3" transform="translate(38.73 100.54) rotate(-69.78)">P</text><text class="cls-3" transform="translate(45.19 85.26) rotate(-60.9)"> </text><text class="cls-3" transform="matrix(0.62, -0.78, 0.78, 0.62, 51.08, 75.54)">B</text><text class="cls-3" transform="translate(62.21 62.74) rotate(-40.03)">A</text><text class="cls-3" transform="translate(76.43 51.89) rotate(-28.7)">R</text><text class="cls-3" transform="matrix(0.94, -0.33, 0.33, 0.94, 91.6, 44.57)"> </text><text class="cls-3" transform="translate(102.46 41.17) rotate(-10.28)">S</text><text class="cls-3" transform="translate(119 38.96) rotate(0.48)">T</text><text class="cls-3" transform="translate(134.95 39.77) rotate(11.75)">U</text><text class="cls-3" transform="translate(152.51 44.25) rotate(23.48)">D</text><text class="cls-3" transform="matrix(0.83, 0.55, -0.55, 0.83, 168.76, 52.35)">I</text><text class="cls-3" transform="translate(178.5 59.23) rotate(43.69)">O</text></g></g></g></svg>