<svg xmlns="http://www.w3.org/2000/svg" viewBox="0 0 349.7 161.95"><defs><style>.cls-1{fill:#fff;}</style></defs><g id="Layer_2" data-name="Layer 2"><g id="Layer_1-2" data-name="Layer 1"><path class="cls-1" d="M149.5,0l-.89,2.44h.62l.09-.2c.26-.6.66-1.51,1.78-1.51h3.1V17.1c0,.09,0,.37-.47.37h-.24v.61h3.34v-.61h-.24c-.48,0-.48-.28-.48-.37V.73h3.1c1.12,0,1.52.91,1.79,1.51l.09.2h.62L160.81,0Z"/><path class="cls-1" d="M172.14.61h.24c.48,0,.48.28.48.37V8.67h-8.12V1c0-.09,0-.37.48-.37h.24V0h-3.34V.61h.24c.48,0,.48.28.48.37V17.1c0,.09,0,.37-.48.37h-.24v.61h3.34v-.61h-.24c-.48,0-.48-.28-.48-.37V9.41h8.12V17.1c0,.09,0,.37-.48.37h-.24v.61h3.34v-.61h-.24c-.48,0-.48-.28-.48-.37V1c0-.09,0-.37.48-.37h.24V0h-3.34Z"/><path class="cls-1" d="M187.54,15.64l-.09.2c-.27.6-.67,1.51-1.79,1.51h-6.2V9.41h4.77c.09,0,.36,0,.36.49v.24h.6V7.94h-.6v.25c0,.48-.27.48-.36.48h-4.77V.73H185c1.12,0,1.52.91,1.78,1.51l.09.2h.62L186.54,0h-9.7V.61h.23c.48,0,.48.28.48.37V17.1c0,.09,0,.37-.48.37h-.23v.61h10.42l.89-2.44Z"/><path class="cls-1" d="M70.54,95.62,61.46,30.26a1.7,1.7,0,0,1,.3-1.44,2.5,2.5,0,0,1,1.94-.65H64V27h-8.5L37.05,87.5,16.48,27.24,16.41,27H7.92v1.15h.33a2.54,2.54,0,0,1,2,.66,1.75,1.75,0,0,1,.34,1.45L3.3,95.63c-.15,1.39-1.23,2.18-3,2.18H0V99H7.59V97.81H7.26a2.57,2.57,0,0,1-2-.65A1.77,1.77,0,0,1,5,95.7l6.93-62.37,21.8,65.41.07.22h1.48L55.28,33.33,64,95.72a1.68,1.68,0,0,1-.3,1.43,2.45,2.45,0,0,1-1.93.66h-.33V99H73.93V97.81H73.6C71.85,97.81,70.74,97,70.54,95.62Z"/><path class="cls-1" d="M132.36,95.54,105.79,27.23l-.08-.21h-1.46L81.4,95.56a3.58,3.58,0,0,1-3.64,2.25h-.33V99H85V97.81h-.33A2.06,2.06,0,0,1,83,97.22a1.19,1.19,0,0,1-.08-1.08L90,74.71H117.6L126,96.18a1.14,1.14,0,0,1,0,1.06,2,2,0,0,1-1.64.57H124V99H136.5V97.81h-.33A3.92,3.92,0,0,1,132.36,95.54ZM117,73.06H90.59l12.17-36.52Z"/><path class="cls-1" d="M226.58,110.5a36.84,36.84,0,0,1-15.23,1.85c-8.61-.77-17.43-5.26-31.5-21.14-9.13-10.3-15.27-18.82-27.55-21l30.58-39.72a6.52,6.52,0,0,1,5-2.35h.33V27h-7.59v1.15h.33c.64,0,1.07.12,1.17.32s.08.57-.73,1.63l-31.79,41.7V30.27c0-1.38.94-2.15,2.64-2.15h.33V27H140v1.15h.33c1.7,0,2.63.77,2.63,2.15V95.6c0,1.38-.93,2.14-2.63,2.14H140V98.9h12.53V97.74h-.33c-1.7,0-2.64-.76-2.64-2.14l0-19.16v-2.8l1.71-2.14c7.93,1.65,15.26,12.37,22.85,21.57s17.51,17.87,31.91,20.21A43.29,43.29,0,0,0,226.74,111Z"/><path class="cls-1" d="M292.83,28.16h.36c1.84,0,2.85.75,2.85,2.11V78.13c0,11.67-8,19.21-20.49,19.21-11.49,0-18.35-7.18-18.35-19.21V30.27c0-1.36,1-2.11,2.85-2.11h.36V27H246.87v1.14h.36c1.83,0,2.84.75,2.84,2.11V78.13c0,13.24,9.29,20.83,25.48,20.83,13.74,0,22.27-8,22.27-20.83V30.27c0-1.36,1-2.11,2.85-2.11H301V27h-8.2Z"/><path class="cls-1" d="M323.63,27H304.48v1.15h.33c1.71,0,2.64.76,2.64,2.15V95.66c0,1.39-.93,2.15-2.64,2.15h-.33V99H317V97.81h-.33c-1.71,0-2.65-.76-2.65-2.15V63.82h9.58C340,63.82,349.7,57,349.7,45.66,349.7,33.64,340.44,27,323.63,27Zm19,18.64c0,10.65-6.74,16.51-19,16.51h-9.58V28.67h9.58C336.22,28.67,342.6,34.39,342.6,45.66Z"/><path class="cls-1" d="M240.74,90.43c-1.27,2.49-3.19,6.25-8.59,6.25H203.07V64.13h22.45c1.68,0,2,1.25,2,2.29v.66h2V58.9h-2v.66c0,1-.35,2.29-2,2.29H203.07V29.31h25.76c5.41,0,7.33,3.75,8.6,6.24l.32.62h2.08L236,27H191.66v1.8h.73c1.18,0,2.58.31,2.58,1.79V95.37c0,1.48-1.4,1.8-2.58,1.8h-.73V99h48.19l3.3-9.15h-2.09Z"/><path d="M119.43,160.75c-6.61-2.45-11-8.12-11-14.77,0-7,4.88-15,17.14-21.45,1.22-13.6,13.3-60.48,18.48-65.68a2.28,2.28,0,0,1,1.34-.83c.56,0,.8.76.8,1.92a31.7,31.7,0,0,1-2.58,10.32c-.13.33-.33.47-.53.47-.45,0-1-.69-1.16-1.43-3.74,13.55-10,35.89-12,44.86,3.31-8,10.74-25.57,15.93-34.22,2.27-3.78,4.74-5.81,6.52-5.81,1.44,0,2.44,1.38,2.44,4.3a22.53,22.53,0,0,1-.64,4.87c-1.74,7.59-8.3,15.62-12.17,20a21.92,21.92,0,0,1,9.63-2.29c7.28,0,14.49,3.89,16.65,13.73,5.14-.49,9.5-.76,12.48-.93,1.11.17,1.55.51,1.55.88,0,.7-1.49,1.47-2.87,1.47l-.42,0a39,39,0,0,0-5-.24c-1.67,0-3.52,0-5.52.18a21.44,21.44,0,0,1,.13,2.4c0,18.64-23.09,43.45-42.36,43.45A19.68,19.68,0,0,1,119.43,160.75Zm45.78-42.9c0-.49,0-1,0-1.49-11.21,1.07-25.74,4-36.73,9.17a34.36,34.36,0,0,1-1.47,4.11,1.28,1.28,0,0,1-1,.72c-.75,0-1.46-1-1.6-2.45a.68.68,0,0,1,0-.2c-10.19,5.27-14.42,12.44-14.42,18.6a12.44,12.44,0,0,0,9.7,12.17,18.55,18.55,0,0,0,4.74.6C142.12,159.08,165.21,136.39,165.21,117.85Zm-.15-2.76c-1.14-9.25-6.94-12.59-13.51-12.59a26.43,26.43,0,0,0-10.85,2.6c-2.65,3.21-5.55,5.45-6.84,5.45h0c-.25,0-.36-.17-.36-.44L132,113.89a65.67,65.67,0,0,0-2.8,9.08C140.14,118.54,153.93,116.3,165.06,115.09ZM151.31,82.92A17.83,17.83,0,0,0,152.93,77c0-1-.33-1.51-.89-1.51-1,0-2.91,1.8-4.89,5.31-4.32,7.61-11.86,24.26-11.91,25.1C140.16,101.3,147.57,92,151.31,82.92Z"/><path d="M220.53,113.31c-1.38,4.79-3.36,11.89-2.59,13.24.65-.24,4.34-16.6,10.13-15.86,3.56.44,4.56,5.89,11.66,3.09,2.18-.87,1.62.87,1,1.6-5.94,3.27-9-2.91-11.66-3.27-3.47-.46-8.32,12.06-9.38,14.91-.72,1.91-.74,4-2.83,3.47a3.06,3.06,0,0,1-2.36-2.11c-1.36-4.57,4.07-22,2.11-20.41-4.05,3.19-13.12,15.16-18.26,13.86-6.39-1.6-3.65-7.67-7.52-4.36-2.83,2.43-9,10.42-12.49,10.48-2.51.07-3.31-3.49-2.47-6,1.61-4.83,8-12.24,13.07-13.53,4.51-1.15,6.87,4,5.25,3.83-4.32-.58-13.11,7.68-14.18,12.26-1.15,5,4.68-2.87,10.13-7.92,7.52-6.92,6.12,1.42,9.32,3.56,2.91,2,14.71-11.55,16.73-13.35a4.73,4.73,0,0,1,2.85-1.54C221.57,105.24,221.3,110.71,220.53,113.31Z"/></g></g></svg>