<svg xmlns="http://www.w3.org/2000/svg" viewBox="0 0 220.14 237.73"><defs><style>.cls-1{fill:#ca8066;}.cls-2,.cls-3{fill:#252424;}.cls-3{font-size:14.63px;font-family:Sansation-Regular, Sansation;}</style></defs><g id="Layer_2" data-name="Layer 2"><g id="CURSOS"><path class="cls-1" d="M181.53,179.65,167.59,79.21A2.62,2.62,0,0,1,168,77a3.85,3.85,0,0,1,3-1h.5V74.23H158.47l-28.41,93L98.46,74.57l-.12-.34h-13V76h.51a3.94,3.94,0,0,1,3,1,2.72,2.72,0,0,1,.52,2.23L78.2,179.67C78,181.8,76.3,183,73.63,183h-.5v1.77H84.79V183h-.5a4,4,0,0,1-3-1,2.68,2.68,0,0,1-.52-2.23L91.38,83.93l33.51,100.52.11.34h2.26L158.09,83.93l13.31,95.88A2.61,2.61,0,0,1,171,182a3.81,3.81,0,0,1-3,1h-.5v1.77h19.27V183h-.51C183.54,183,181.83,181.79,181.53,179.65Z"/><path class="cls-2" d="M115.57,231.94c-5.36-2-8.92-6.59-8.92-12,0-5.67,3.95-12.19,13.91-17.41,1-11,10.79-49.09,15-53.31a1.8,1.8,0,0,1,1.09-.67c.45,0,.65.61.65,1.55a25.88,25.88,0,0,1-2.1,8.38c-.11.27-.27.38-.43.38-.36,0-.78-.56-.94-1.16-3,11-8.15,29.13-9.73,36.41,2.69-6.48,8.72-20.75,12.93-27.77,1.84-3.07,3.84-4.72,5.29-4.72,1.17,0,2,1.12,2,3.49a18.08,18.08,0,0,1-.52,3.95c-1.41,6.16-6.74,12.68-9.88,16.26a17.66,17.66,0,0,1,7.82-1.86c5.91,0,11.76,3.16,13.51,11.14,4.17-.4,7.71-.61,10.13-.76.9.15,1.27.42,1.27.72,0,.56-1.21,1.2-2.33,1.2l-.35,0a30.79,30.79,0,0,0-4-.2c-1.36,0-2.86,0-4.48.14a18.21,18.21,0,0,1,.11,1.95c0,15.14-18.75,35.27-34.39,35.27A16,16,0,0,1,115.57,231.94Zm37.17-34.82c0-.4,0-.81,0-1.21-9.1.87-20.89,3.23-29.81,7.44a28,28,0,0,1-1.2,3.34,1,1,0,0,1-.83.58c-.61,0-1.19-.83-1.3-2a.44.44,0,0,1,0-.16c-8.27,4.28-11.7,10.1-11.7,15.1a10.1,10.1,0,0,0,7.88,9.88,15.13,15.13,0,0,0,3.84.48C134,230.58,152.74,212.16,152.74,197.12Zm-.13-2.24c-.92-7.51-5.63-10.22-11-10.22a21.5,21.5,0,0,0-8.81,2.11c-2.15,2.6-4.5,4.43-5.55,4.43h0c-.2,0-.29-.15-.29-.36l-1.23,3.07a53.44,53.44,0,0,0-2.28,7.36C132.38,197.68,143.58,195.86,152.61,194.88Zm-11.16-26.11a14.45,14.45,0,0,0,1.32-4.83c0-.83-.27-1.22-.72-1.22-.85,0-2.37,1.46-4,4.31-3.5,6.18-9.62,19.69-9.66,20.37A59.9,59.9,0,0,0,141.45,168.77Z"/><path class="cls-2" d="M197.63,193.44c-1.12,3.88-2.72,9.64-2.09,10.74.52-.2,3.52-13.47,8.22-12.88,2.89.37,3.7,4.79,9.46,2.51,1.77-.7,1.32.71.85,1.3-4.82,2.66-7.32-2.36-9.47-2.65-2.81-.38-6.75,9.79-7.62,12.1-.57,1.55-.59,3.29-2.29,2.82a2.48,2.48,0,0,1-1.91-1.72c-1.11-3.7,3.3-17.82,1.71-16.56-3.29,2.58-10.65,12.3-14.83,11.25-5.18-1.3-3-6.23-6.1-3.54-2.29,2-7.28,8.46-10.13,8.51-2,.05-2.69-2.84-2-4.91,1.3-3.92,6.45-9.94,10.61-11,3.66-.94,5.58,3.28,4.26,3.1-3.51-.47-10.64,6.23-11.51,9.95-.94,4.1,3.8-2.33,8.22-6.43,6.1-5.61,5,1.16,7.57,2.89,2.36,1.59,11.94-9.37,13.58-10.83a3.79,3.79,0,0,1,2.31-1.25C198.48,186.88,198.27,191.32,197.63,193.44Z"/><text class="cls-3" transform="translate(59.98 194.09) rotate(-127.76)">M</text><text class="cls-3" transform="translate(47.73 176.58) rotate(-115.28)">A</text><text class="cls-3" transform="translate(40.47 159.19) rotate(-103.72)">K</text><text class="cls-3" transform="translate(36.97 141.22) rotate(-92.62)">E</text><text class="cls-3" transform="translate(36.91 124.13) rotate(-81.24)">U</text><text class="cls-3" transform="translate(40.71 105.42) rotate(-69.78)">P</text><text class="cls-3" transform="translate(47.51 89.39) rotate(-60.81)"> </text><text class="cls-3" transform="matrix(0.62, -0.78, 0.78, 0.62, 53.74, 79.17)">B</text><text class="cls-3" transform="matrix(0.77, -0.64, 0.64, 0.77, 65.42, 65.78)">A</text><text class="cls-3" transform="translate(80.43 54.37) rotate(-28.57)">R</text><text class="cls-3" transform="translate(96.36 46.72) rotate(-19.36)"> </text><text class="cls-3" transform="translate(107.81 43.17) rotate(-10.13)">S</text><text class="cls-3" transform="translate(125.18 40.89) rotate(0.64)">T</text><text class="cls-3" transform="matrix(0.98, 0.21, -0.21, 0.98, 141.94, 41.79)">U</text><text class="cls-3" transform="matrix(0.92, 0.4, -0.4, 0.92, 160.42, 46.57)">D</text><text class="cls-3" transform="translate(177.45 55.13) rotate(33.59)">I</text><text class="cls-3" transform="translate(187.65 62.39) rotate(43.88)">O</text></g></g></svg>