<svg xmlns="http://www.w3.org/2000/svg" viewBox="0 0 707.91 327.85"><defs><style>.cls-1{fill:#d38466;}.cls-2{fill:#252424;}</style></defs><g id="Layer_2" data-name="Layer 2"><g id="Layer_1-2" data-name="Layer 1"><path class="cls-1" d="M302.65,0l-1.82,5h1.25l.19-.42c.54-1.21,1.35-3,3.61-3h6.28V34.62c0,.19,0,.75-1,.75h-.48V36.6h6.76V35.37H317c-1,0-1-.56-1-.75V1.49h6.28c2.26,0,3.07,1.83,3.61,3l.19.42h1.25L325.53,0Z"/><path class="cls-1" d="M348.47,1.24H349c1,0,1,.56,1,.74V17.56H333.5V2c0-.18,0-.74,1-.74H335V0h-6.77V1.24h.49c1,0,1,.56,1,.74V34.62c0,.19,0,.75-1,.75h-.49V36.6H335V35.37h-.49c-1,0-1-.56-1-.75V19h16.42V34.62c0,.19,0,.75-1,.75h-.48V36.6h6.76V35.37h-.48c-1,0-1-.56-1-.75V2c0-.18,0-.74,1-.74h.48V0h-6.76Z"/><path class="cls-1" d="M379.64,31.66l-.18.41c-.54,1.21-1.36,3-3.61,3H363.29V19H373c.18,0,.72,0,.72,1v.5h1.21V16.08h-1.21v.49c0,1-.54,1-.72,1h-9.66V1.49H374.4c2.26,0,3.07,1.83,3.61,3.05l.18.41h1.25L377.63,0H358V1.24h.48c1,0,1,.56,1,.74V34.62c0,.19,0,.75-1,.75H358V36.6h21.1l1.81-4.94Z"/><path class="cls-1" d="M142.8,193.57,124.43,61.26a3.43,3.43,0,0,1,.59-2.91c.73-.86,2.09-1.32,3.92-1.32h.67V54.69H112.42L75,177.14l-41.63-122-.16-.45H16V57h.67a5.21,5.21,0,0,1,4,1.33,3.55,3.55,0,0,1,.68,2.94L6.69,193.59c-.31,2.8-2.51,4.41-6,4.41H0v2.34H15.37V198H14.7a5.22,5.22,0,0,1-4-1.32,3.61,3.61,0,0,1-.69-3l14-126.25,44.13,132.4.15.46h3l40.6-132.87,17.54,126.3a3.38,3.38,0,0,1-.6,2.9c-.73.87-2.09,1.33-3.91,1.33h-.67v2.34h25.39V198H149C145.45,198,143.19,196.39,142.8,193.57Z"/><path class="cls-1" d="M267.93,193.42,214.15,55.12l-.16-.43h-3L164.79,193.45c-.94,2.81-3.76,4.55-7.38,4.55h-.67v2.34h15.37V198h-.67c-1.68,0-2.92-.42-3.47-1.19a2.45,2.45,0,0,1-.16-2.19l14.47-43.39h55.79L255,194.7a2.31,2.31,0,0,1-.05,2.15c-.51.74-1.69,1.15-3.31,1.15h-.67v2.34h25.39V198h-.67C272.05,198,269,196.2,267.93,193.42Zm-31.16-45.53H183.39L208,74Z"/><path class="cls-1" d="M458.67,223.7a74.58,74.58,0,0,1-30.83,3.73c-17.43-1.56-35.28-10.65-63.77-42.79-18.48-20.85-30.91-38.11-55.76-42.54L370.2,61.68a13.19,13.19,0,0,1,10.07-4.75h.67V54.6H365.57v2.33h.67c1.3,0,2.17.24,2.37.65s.16,1.14-1.47,3.29l-64.35,84.41v-84c0-2.8,1.9-4.35,5.34-4.35h.67V54.6H283.42v2.33h.67c3.44,0,5.34,1.55,5.34,4.35V193.53c0,2.8-1.9,4.34-5.34,4.34h-.67v2.33H308.8v-2.33h-.67c-3.44,0-5.34-1.54-5.34-4.34l0-38.79,0-5.66,3.47-4.34c16.06,3.35,30.89,25,46.26,43.67s35.44,36.17,64.6,40.9c9.62,1.56,27.18,1.12,41.86-4.7Z"/><path class="cls-1" d="M592.79,57h.72c3.72,0,5.77,1.52,5.77,4.28v96.88c0,23.62-16.27,38.89-41.47,38.89-23.26,0-37.15-14.54-37.15-38.89V61.28c0-2.76,2.05-4.28,5.78-4.28h.72V54.69H499.75V57h.72c3.72,0,5.77,1.52,5.77,4.28v96.88c0,26.81,18.8,42.18,51.57,42.18,27.81,0,45.08-16.16,45.08-42.18V61.28c0-2.76,2.05-4.28,5.77-4.28h.72V54.69H592.79Z"/><path class="cls-1" d="M655.13,54.69H616.38V57h.67c3.45,0,5.34,1.54,5.34,4.34V193.66c0,2.8-1.89,4.34-5.34,4.34h-.67v2.34h25.39V198h-.67c-3.45,0-5.35-1.54-5.35-4.34V129.18h19.38c33,0,52.78-13.73,52.78-36.74C707.91,68.1,689.17,54.69,655.13,54.69Zm38.42,37.75c0,21.54-13.65,33.41-38.42,33.41H635.75V58h19.38C680.62,58,693.55,69.61,693.55,92.44Z"/><path class="cls-1" d="M487.34,183.07c-2.57,5-6.45,12.64-17.4,12.64H411.08V129.83h45.45c3.39,0,4.1,2.52,4.1,4.64v1.32h4.1V119.24h-4.1v1.33c0,2.11-.71,4.63-4.1,4.63H411.08V59.32h52.16c10.94,0,14.82,7.61,17.39,12.64l.65,1.27h4.23l-7.83-18.54H388v3.64h1.49c2.38,0,5.21.63,5.21,3.64V193.06c0,3-2.83,3.64-5.21,3.64H388v3.64h97.56l6.67-18.54H488Z"/><path class="cls-2" d="M241.76,325.41c-13.38-5-22.25-16.44-22.25-29.9,0-14.15,9.86-30.41,34.68-43.42,2.48-27.52,26.93-122.43,37.43-133,1.12-1.13,2-1.67,2.7-1.67,1.12,0,1.62,1.53,1.62,3.87,0,5-2.25,13.92-5.22,20.9-.27.68-.68,1-1.08,1-.91,0-1.94-1.4-2.35-2.88C279.73,167.72,267,213,263,231.1c6.71-16.17,21.75-51.76,32.24-69.28,4.6-7.65,9.6-11.75,13.2-11.75,2.93,0,5,2.79,5,8.69a45,45,0,0,1-1.31,9.86c-3.51,15.36-16.8,31.62-24.64,40.54A44.37,44.37,0,0,1,307,204.52c14.72,0,29.32,7.88,33.69,27.79,10.4-1,19.23-1.53,25.26-1.89,2.26.36,3.16,1,3.16,1.8,0,1.4-3,3-5.81,3l-.86,0a79.91,79.91,0,0,0-10-.49c-3.38,0-7.12.08-11.17.36a44,44,0,0,1,.27,4.86c0,37.74-46.76,88-85.76,88A39.73,39.73,0,0,1,241.76,325.41Zm92.69-86.84c0-1,0-2-.09-3-22.7,2.16-52.11,8.06-74.36,18.55a69,69,0,0,1-3,8.34,2.6,2.6,0,0,1-2.08,1.44c-1.53,0-3-2.08-3.24-5a1.36,1.36,0,0,1,0-.4C231,269.2,222.48,283.7,222.48,296.18c0,11.62,7.48,21.44,19.64,24.64a37.34,37.34,0,0,0,9.59,1.22C287.7,322,334.45,276.09,334.45,238.57Zm-.31-5.58c-2.3-18.74-14.06-25.49-27.34-25.49a53.5,53.5,0,0,0-22,5.27c-5.37,6.48-11.22,11-13.83,11h-.09c-.5,0-.72-.36-.72-.9l-3.07,7.66c-2.47,5.72-4,12.11-5.67,18.37C283.69,240,311.62,235.42,334.14,233ZM306.3,167.86c2.3-5.59,3.29-9.59,3.29-12,0-2.07-.68-3.06-1.8-3.06-2.12,0-5.9,3.65-9.91,10.77-8.74,15.4-24,49.09-24.1,50.8C283.73,205.06,298.73,186.28,306.3,167.86Z"/><path class="cls-2" d="M446.42,229.39c-2.79,9.68-6.8,24.05-5.23,26.8,1.31-.5,8.79-33.61,20.5-32.12,7.2.9,9.23,11.94,23.6,6.26,4.41-1.76,3.29,1.76,2.12,3.24-12,6.63-18.24-5.9-23.61-6.62-7-.94-16.84,24.42-19,30.18-1.44,3.88-1.49,8.2-5.72,7a6.2,6.2,0,0,1-4.78-4.28c-2.75-9.24,8.25-44.46,4.28-41.31-8.2,6.45-26.57,30.68-37,28.07-12.93-3.25-7.39-15.54-15.23-8.83-5.72,4.91-18.15,21.08-25.27,21.21-5.09.14-6.71-7.07-5-12.25,3.24-9.77,16.08-24.77,26.44-27.38,9.14-2.35,13.92,8.19,10.63,7.74-8.74-1.17-26.53,15.54-28.69,24.82-2.34,10.22,9.46-5.81,20.49-16,15.23-14,12.39,2.88,18.88,7.2,5.9,4,29.77-23.37,33.87-27,2.43-2.21,4.32-3.11,5.76-3.11C448.54,213,448,224.11,446.42,229.39Z"/></g></g></svg>