<svg xmlns="http://www.w3.org/2000/svg" viewBox="0 0 189.44 212.66"><defs><style>.cls-1{fill:#d38466;}.cls-2{fill:#252424;}</style></defs><g id="Layer_2" data-name="Layer 2"><g id="Layer_1-2" data-name="Layer 1"><path class="cls-1" d="M145.28,141.29,126.59,6.69a3.51,3.51,0,0,1,.6-3c.74-.88,2.12-1.34,4-1.34h.68V0H114.37L76.3,124.57,34,.46,33.79,0H16.31V2.38H17c1.89,0,3.29.46,4.07,1.35a3.62,3.62,0,0,1,.69,3L6.8,141.3c-.31,2.86-2.55,4.5-6.12,4.5H0v2.38H15.63V145.8H15c-1.89,0-3.29-.47-4.06-1.35a3.6,3.6,0,0,1-.7-3L24.46,13l44.9,134.7.16.47h3L113.86,13,131.7,141.49a3.51,3.51,0,0,1-.61,3,5.1,5.1,0,0,1-4,1.35h-.68v2.38h25.82V145.8h-.68C148,145.8,145.68,144.15,145.28,141.29Z"/><path class="cls-2" d="M56.88,211.35c-7.19-2.66-12-8.83-12-16.07,0-7.59,5.31-16.33,18.64-23.33,1.33-14.78,14.47-65.78,20.11-71.44a2.44,2.44,0,0,1,1.46-.9c.6,0,.87.83.87,2.08,0,2.69-1.21,7.48-2.81,11.23-.15.37-.36.51-.58.51-.49,0-1-.75-1.26-1.55-4.07,14.74-10.92,39-13,48.8C71.91,152,80,132.87,85.63,123.45c2.47-4.11,5.16-6.31,7.1-6.31,1.57,0,2.66,1.5,2.66,4.67a24.51,24.51,0,0,1-.7,5.3c-1.89,8.25-9,17-13.24,21.78a23.78,23.78,0,0,1,10.48-2.49c7.91,0,15.75,4.23,18.1,14.93,5.59-.53,10.33-.82,13.58-1,1.21.2,1.69.56,1.69,1,0,.75-1.62,1.6-3.12,1.6l-.46,0a43.66,43.66,0,0,0-5.4-.26c-1.81,0-3.82,0-6,.19a22.82,22.82,0,0,1,.14,2.61c0,20.29-25.12,47.27-46.08,47.27A21.31,21.31,0,0,1,56.88,211.35Zm49.81-46.66c0-.53,0-1.09,0-1.62-12.2,1.16-28,4.33-40,10a37.52,37.52,0,0,1-1.59,4.48,1.4,1.4,0,0,1-1.12.78c-.82,0-1.59-1.12-1.74-2.67a.78.78,0,0,1,0-.22c-11.09,5.74-15.69,13.53-15.69,20.24,0,6.24,4,11.52,10.56,13.24a20.25,20.25,0,0,0,5.15.65C81.57,209.54,106.69,184.85,106.69,164.69Zm-.17-3C105.28,151.62,99,148,91.83,148A28.74,28.74,0,0,0,80,150.83c-2.88,3.48-6,5.92-7.43,5.92h0c-.27,0-.39-.19-.39-.48l-1.64,4.12a70.39,70.39,0,0,0-3.05,9.87C79.41,165.44,94.42,163,106.52,161.69Zm-15-35a19.25,19.25,0,0,0,1.77-6.47c0-1.11-.36-1.64-1-1.64-1.14,0-3.17,2-5.32,5.78-4.7,8.28-12.9,26.38-13,27.3C79.44,146.69,87.5,136.59,91.56,126.7Z"/><path class="cls-2" d="M166.85,159.76c-1.5,5.2-3.65,12.92-2.8,14.4.7-.27,4.72-18.06,11-17.26,3.87.48,5,6.41,12.68,3.36,2.37-.94,1.77,1,1.14,1.75-6.46,3.55-9.8-3.17-12.68-3.56-3.78-.51-9.06,13.12-10.22,16.21-.77,2.09-.8,4.41-3.07,3.78a3.31,3.31,0,0,1-2.57-2.3c-1.47-5,4.43-23.89,2.3-22.19-4.4,3.46-14.28,16.48-19.87,15.07-6.94-1.74-4-8.34-8.18-4.74-3.07,2.64-9.75,11.33-13.57,11.4-2.74.07-3.61-3.8-2.69-6.58,1.74-5.25,8.64-13.31,14.21-14.72,4.91-1.26,7.47,4.41,5.71,4.17-4.7-.63-14.26,8.35-15.42,13.33-1.26,5.49,5.08-3.12,11-8.61,8.18-7.53,6.66,1.54,10.14,3.87,3.17,2.13,16-12.56,18.2-14.52a5.13,5.13,0,0,1,3.1-1.67C168,151,167.7,156.92,166.85,159.76Z"/></g></g></svg>