<svg xmlns="http://www.w3.org/2000/svg" viewBox="0 0 1601.68 467.89"><defs><style>.cls-1{fill:#d38466;}.cls-2{fill:#fff;}</style></defs><g id="Layer_2" data-name="Layer 2"><g id="LANDING"><path class="cls-1" d="M212.37,257.37v1.8H169.18v-1.8c6.5,0,8.79-3.37,7.16-7.56L145.68,171H43.79L17.55,249.71c-1.46,4.37,1.07,7.66,7.65,7.66v1.8H0v-1.8c7.2,0,12.59-3.57,14.4-9L97.19,0h3.6l96.58,248.37C199.47,253.74,205.17,257.37,212.37,257.37Zm-68.09-90L90.82,29.9,45,167.38Z"/><path class="cls-1" d="M418.05,230.37h1.8l-10.8,28.8H225.47v-1.8c7.2,0,10.8-3.6,10.8-9V10.8c0-5.4-3.6-9-10.8-9V0h43.2V1.8c-7.2,0-10.8,3.6-10.8,9V255.57H387.45C407.25,255.57,413.9,239.48,418.05,230.37Zm-9-14.4H297.46v-1.8c7.2,0,10.8-3.6,10.8-9V10.8c0-5.4-3.6-9-10.8-9V0h43.2V1.8c-7.2,0-10.8,3.6-10.8,9V212.37h57.59c19.8,0,26.45-16.08,30.6-25.19h1.8Z"/><path class="cls-1" d="M748.62,0V1.8c-7.2,0-10.8,3.6-10.8,9V259.17h-3.6L568.64,10.8V248.37c0,5.4,3.6,9,10.8,9v1.8h-25.2v-1.8c7.2,0,10.8-3.6,10.8-9V10.8c0-5.4-3.6-9-10.8-9V0h32.4L734.22,219.62V10.8c0-5.4-3.6-9-10.8-9V0Z"/><path class="cls-1" d="M936.19,230.37H938l-10.79,28.8H776v-1.8c7.2,0,10.8-3.6,10.8-9V10.8c0-5.4-3.6-9-10.8-9V0H916.4l10.8,28.8h-1.8c-4.16-9.12-10.8-25.2-30.6-25.2H808.41V127.78H884c5.4,0,9-3.6,9-10.79h1.8v25.19H893c0-7.2-3.6-10.8-9-10.8H808.41V255.57H905.6C925.4,255.57,932,239.48,936.19,230.37Z"/><path class="cls-1" d="M1280.61,0V1.8c-7.18,0-12.2,3.58-13.64,9l-65.55,248.41h-3.6L1109.67,34.41l-70.23,224.76h-3.6L956.5,10.79h0c-1.73-5.4-7-9-14.25-9V0h43.19V1.8c-6.62,0-9,3.1-7.82,7.76l68,218.34L1116.83,0h3.6l86.14,226L1263.65,9.68c1-4.78-1.55-7.88-8.24-7.88V0Z"/><path class="cls-2" d="M887.67,330.69a21.26,21.26,0,0,1-.08-2.34c0-16.61,13-61.56,19.65-76.17,1.39-3.13,6.43-7.39,10.08-7.39,2.52,0,4.44,1.83,4.44,7.22l-.18,2.69c-.69,7.57-5.13,8.44-7.47,14.87-4,11.3-8.44,24.52-9,31.13,9.48-18.52,36.78-83.64,53.65-88.25a15,15,0,0,1,3.13-.52c4.78,0,6.6,3.91,6.6,10.08,0,21-21.12,68.25-21.38,79,3.3-2.86,21.3-24.34,31.9-24.34A7,7,0,0,1,981,277c2.6.87,3.3,2.09,3.3,3.83a24,24,0,0,1-.61,3.74c-1.13,6.17-3.56,16.78-3.56,25.56,0,8,2,14.52,8.78,14.52,8.87,0,25.82-11.13,57.21-44.26,2.52-2.52,4-3.3,4.87-3.3s1,.61,1,1.39a5.16,5.16,0,0,1-.61,2.26c-5.48,9.48-49.64,52.08-73.55,52.08-4.35,0-8-1.39-10.61-4.61-3.65-4.35-4.7-10.43-4.7-16.34,0-8.35,2.09-16.52,2.09-19.48,0-.78-.09-1.22-.43-1.22s-1.22.7-2.44,2.18c-5.3,6.34-9.74,13.82-14,19-2.26,2.78-5.47,4.95-8.26,4.95-2.6,0-5-1.74-6-6.43a9.42,9.42,0,0,1-.17-1.65c0-14,22.08-73,25.74-86.77a23,23,0,0,0,.78-3.83c0-.52-.17-.87-.7-.87l-.43.09c-13.56,2.52-50.52,84.42-55,101.29l-4.52,15A5.68,5.68,0,0,1,894,337C891.15,337,888.11,335,887.67,330.69Z"/><path class="cls-2" d="M1226.68,171.24C1218.42,182,1189.9,288,1187.46,306.09c8.61-23,19-50.95,30.43-71.12s23.39-32.78,34.52-24.78c11.48,9.74-1,34.95-16.08,58.08-15,23-32.43,43.82-32.52,44.43,11.39,9.56,20.08,12,29,6.52A220.73,220.73,0,0,0,1255.54,303c8-6.34,15.82-13.12,21.13-18.25,3.13-3.22,5.65-8.18,9.65-1.83-.78,2.78-11.22,12.26-22.61,21.56s-23.65,18.35-28.69,20.69c-15.74,7.05-28.78-4-40.6-13.56a182.09,182.09,0,0,0-9.65,33.74,197.12,197.12,0,0,0-2.35,46c.26,5.13.61,9.3.43,12.26-15.12-1-18.08-43.82-9.3-95,6.18-35.47,17.13-71,29.74-105.46-35.82,53.29-97.38,139.72-106.86,99.55-2.08-8.52,5.65-20.87-7.47-9.65-14.61,12.52-26.52,34.34-43.56,44.6-10.79,6.52-23.65.69-26.26-11.39-3.91-18.69,37.91-70,65.47-65.82,11,1.48,15.82,12.09,9.56,13.91-16.34,4.87-53.38,33.39-57.56,51.39-4.86,21.3,31-25.13,54.78-41.65,18.26-12.69,23.3-1.74,20.69,13.83-5.65,34.51,67.73-69.13,98.42-113.82,3.39-8.69,6.87-17.3,10.35-25.73,6.78-16.7,11.39-18.61,14.43-19.74a5.49,5.49,0,0,1,1.48-.26C1243.11,138.28,1237,157.85,1226.68,171.24Zm-5.57,70.42a291.67,291.67,0,0,0-23.3,57.47c3.56-2.78,17.56-22.52,30.17-42s23.56-39,19.82-41.65a4.18,4.18,0,0,0-3-1C1238.41,214.54,1229.54,226.19,1221.11,241.66Z"/><path class="cls-2" d="M1274.33,319.22a20.32,20.32,0,0,1-5.74-14.78c0-19.83,20.78-45.39,33.3-48.26a26.73,26.73,0,0,1,6.26-.69c5.56,0,11.82,1.47,13.65,6.95a12.74,12.74,0,0,1,.61,3.57c0,15.12-30.87,27.82-31.83,28.51-3.47,2.7-4.86,10.52-4.86,16.35a24.18,24.18,0,0,0,.26,3.83c1.21,8.86,7.21,12.34,15.73,12.34,26.35,0,76.6-33.3,83.3-41.3,2-1.74,8.6-7.65,10.08-7.82h.44c.69,0,1,.17,1,.61,0,1.73-5.13,6.6-5.82,7.56C1370,304.17,1332.41,330,1302.15,330,1291.63,330,1282.06,326.87,1274.33,319.22Zm42.08-50.61c0-1-.7-1.73-2.52-1.82-5.92,1.48-21.65,18.34-21.65,22.17a.92.92,0,0,0,.17.52l.26.09C1295.63,289.57,1316.41,274.09,1316.41,268.61Z"/><path class="cls-2" d="M1426.83,318.17c0-9.91,1.39-19.82,2.87-24.6-7.39,8.6-23.39,45-32.61,45H1397c-15.13-2.08-20.43-12-20.43-24,0-21.3,16.43-49.47,24-54a2.28,2.28,0,0,1,1-.18c2.87,0,10.35,1.65,10.35,7.91a13.12,13.12,0,0,1-1.74,5.83c-6.44,11.74-18.52,37.38-18.52,50.77,0,3.22.69,5.74,2.34,7.13a1.8,1.8,0,0,0,1.31.61,3.52,3.52,0,0,0,2.35-1.39c9.91-10.69,38.25-58.08,44.25-72.68a7.62,7.62,0,0,1,7.13-6.18h.17c2.79,0,5.31,1.83,5.31,6.44a18.92,18.92,0,0,1-.87,5.21c-1.65,6-11,41.3-14.09,56.52a54.57,54.57,0,0,0-1.3,10.08c0,4.26,1.22,6.09,3.13,6.09,10.61,0,44.86-52.25,47.47-58a5,5,0,0,1,3.3-1.83c.7,0,1.13.35,1.13,1.31a5.9,5.9,0,0,1-.52,2.34c-5.39,14.35-37.64,60.78-53.38,63.82a12.6,12.6,0,0,1-1.74.17C1429.35,344.6,1426.83,331.48,1426.83,318.17Z"/><path class="cls-2" d="M1446.31,464.85c-1-1.48-1.39-4.26-1.39-8.17,0-31.74,29.12-137.38,44.34-192,1.39-4.95,1.91-7.74,1.91-9.56,0-3.91-2.43-3.48-4.17-11.31a8.08,8.08,0,0,1-.26-2c0-4,3-5.91,6.52-5.91,4.61,0,10.08,3.48,10.08,9.74l-.08,1c-2.79,32.09-45,165.2-47.13,204.15,10.61-40.43,44.08-148.33,71.91-190.76,7.73-11.91,15.38-16.6,21.82-16.6,9.21,0,15.74,10,15.74,22.52a39.87,39.87,0,0,1-2.18,12.78c-5.74,16.52-19.13,32.77-21.13,37.12,19.57-4.52,45.74-28.34,53.48-36,1.82-1.83,3.47-2.61,4.52-2.61a1.25,1.25,0,0,1,1.39,1.3c0,1.13-1,3-3.13,5.13-15.74,16-49.91,40.34-62.69,41.47-4.17,4-17.48,23.83-30.52,23.83a13.15,13.15,0,0,1-9.56-4.26c-6.52,16.52-37.21,119.29-39.73,121.89a5,5,0,0,1-3.4,1.22A8.27,8.27,0,0,1,1446.31,464.85Zm77.2-145.2c4.79-2.78,29.3-43.12,29.3-58.95,0-2.17-.43-3.82-1.47-4.95a5.32,5.32,0,0,0-3.83-1.83h-.09c-16.43,0-47.55,78.16-47.55,82.6C1505.6,325.65,1515.43,319.74,1523.51,319.65Z"/></g></g></svg>