<svg xmlns="http://www.w3.org/2000/svg" viewBox="0 0 1585.72 359.32"><defs><style>.cls-1{fill:#d38466;}.cls-2{fill:#252424;}</style></defs><g id="Layer_2" data-name="Layer 2"><g id="LANDING"><path class="cls-1" d="M166,28.73h-1.6c-3.68-8.08-9.58-22.35-27.14-22.35H92.59v217.1c0,4.79,3.19,8,9.57,8v1.6H63.85v-1.6c6.39,0,9.58-3.19,9.58-8V6.38H28.73C11.17,6.38,5.28,20.65,1.6,28.73H0L9.58,3.19H156.44Z"/><path class="cls-1" d="M320.06,207.52h1.59l-9.58,25.54H178v-1.6c6.39,0,9.58-3.19,9.58-8V12.77c0-4.79-3.19-8-9.58-8V3.19H302.5l9.57,25.54h-1.59c-3.69-8.08-9.58-22.35-27.14-22.35H206.72V116.53h67c4.79,0,8-3.19,8-9.58h1.6V129.3h-1.6c0-6.38-3.19-9.58-8-9.58h-67V229.87h86.2C310.48,229.87,316.37,215.6,320.06,207.52Z"/><path class="cls-1" d="M514.36,194.75c-16.6,25.87-43.23,41.5-78.22,41.5-64.36,0-113.34-52.88-113.34-118.12S371.78,0,436.14,0c24.53,0,42,5.85,62.26,20.75l3.19,28.74c-11.33-28.85-36-46.3-65.45-46.3-52.9,0-91,50.59-91,114.94s38.09,114.93,91,114.93c29.75,0,58.34-13.33,75-38.31Z"/><path class="cls-1" d="M700.11,3.19v1.6c-6.38,0-9.57,3.19-9.57,8V233.06h-3.2L540.48,12.77V223.48c0,4.79,3.19,8,9.58,8v1.6H527.71v-1.6c6.39,0,9.58-3.19,9.58-8V12.77c0-4.79-3.19-8-9.58-8V3.19h28.74L687.34,198V12.77c0-4.79-3.19-8-9.57-8V3.19Z"/><path class="cls-1" d="M753.15,12.77V223.48c0,4.79,3.19,8,9.57,8v1.6H724.41v-1.6c6.39,0,9.58-3.19,9.58-8V12.77c0-4.79-3.19-8-9.58-8V3.19h38.31v1.6C756.34,4.79,753.15,8,753.15,12.77Z"/><path class="cls-1" d="M1135.7,231.46v1.6h-38.32v-1.6c5.74,0,7.91-2.69,6.39-6.59l-27.23-70H986.17s-4.11,12.37-4.67,14c-3.9,11.7-20.26,67.39-83.66,67.39-64.36,0-113.34-52.88-113.34-118.12S833.48,0,897.84,0h0c24.52,0,42,5.85,62.24,20.75l3.19,28.74c-11.33-28.85-36-46.3-65.45-46.3-52.89,0-91,50.59-91,114.94s38.1,114.93,91,114.93c56.23,0,73.82-44.28,81.62-67.67.12-.37,54.07-162.2,54.07-162.2h3.19l85.67,220.29C1124.26,228.29,1129.31,231.46,1135.7,231.46Zm-60.4-79.81L1027.88,29.72,987.24,151.65Z"/><path class="cls-1" d="M1288.1,172.18c0,43.57-45.47,64.07-81.77,64.07-15.86,0-43.58-3.49-64.54-19.5l-4.27-32.47c7.17,21.62,30.35,48.78,68.81,48.78,33.65,0,60.43-21.28,60.43-55.08,0-69.41-119.64-57.73-123-122.86-2-39,28.11-55.12,65.78-55.12,21.39,0,40.51,5.62,58.89,20.75l3.2,28.74c-9.29-25.66-28.3-46.3-62.09-46.3-31.22,0-49.52,18.47-49.2,44.06C1161,102.5,1288.1,94.84,1288.1,172.18Z"/><path class="cls-2" d="M709.55,279.19l0-3.27c0-14.87,1.69-36.34,3.32-45.19,1-5.13,4.9-8.06,8.4-8.06,3.1,0,5.8,2.31,5.8,7.38a16.58,16.58,0,0,1-.22,2.82c-.57,3.78-8.51,37.42-8.51,46.88,0,1.47.17,2.37.62,2.48l.22.06c5.47,0,33.48-42.43,33.48-62.61a16,16,0,0,0-.51-4.22c-.85-2.93-5-2-8.29-2.93-1.29-.34-1.85-1.13-1.85-2,0-1.41,1.69-3.05,4.22-3.05a8.1,8.1,0,0,1,3.89,1.13c3.72,2,5.24,6,5.24,11,0,21.19-26.71,62.33-32.85,66.89-3.1,2.26-5.52,3.27-7.38,3.27C711.13,289.84,709.61,285.45,709.55,279.19Z"/><path class="cls-2" d="M875.5,230.5c-2.25,9.3-10.25,22.6-10.14,29.08,5.07-6.59,10.93-15.72,18-19.83,17.19-10,10.2,23.72,15.28,26.59,8.45,4.74,37.92-24.62,41.47-27.61,2.31-1.92,4.45-2.08,1.46,1.47-6.08,7.26-31.72,32-45.41,29.19-15-3.16-4.51-31-11.89-26.83-9.7,5.41-16.74,21.13-20.85,26.6-1.47,1-5,1.13-6.43-1.18-4.73-8,6.31-31.22,9.13-42.21.62-2.37.9-6.2-1.58-4.23-10.25,8.12-35.78,39.51-48.8,36.24-16.17-4.06-9.24-19.44-19-11-7.21,6.15-22.76,26.37-31.72,26.54-6.31.17-8.34-8.84-6.2-15.32,4.06-12.23,20.12-31,33.08-34.27,11.44-2.93,17.47,10.26,13.3,9.7-10.94-1.47-33.2,19.44-35.84,31.05-3,12.79,11.77-7.27,25.58-20.06,19-17.53,15.5,3.6,23.67,9,7.32,5,39.72-29.24,44.85-33.81,2.43-2.2,4.51-3.1,6.31-3.1C874.88,216.42,877.2,223.63,875.5,230.5Z"/><path class="cls-2" d="M922.78,351a16.67,16.67,0,0,1,.28-3.27c3.66-22,28.57-60.58,41.36-75.9,3.55-12.4,6-22.66,6.59-27.45.17-1.69.28-3,.28-4.17,0-2.53-.45-3.6-1.29-3.6-4.85,0-21.75,34.37-34.21,34.37a6.65,6.65,0,0,1-4.84-2.14,11.8,11.8,0,0,1-3.27-8.68c0-15.83,21.41-40.52,38.94-40.52h0a19.54,19.54,0,0,1,5,.79c3.32,1.07,4.62,2.71,4.62,4.29s-1.35,3-3.33,3.71c-14.36,4.57-37.81,26-37.81,35.51a4.14,4.14,0,0,0,.68,2.36A1.47,1.47,0,0,0,937,267c6.15,0,24.91-33,32.69-33H970c6.31.62,8.73,4.51,9.24,9.19a16.5,16.5,0,0,1,.06,1.8,88,88,0,0,1-1.3,12.62c11.89-10.87,25.58-19.1,40.4-20.17h.12a1.52,1.52,0,0,1,1.46,1.41V239a1.48,1.48,0,0,1-1.35,1.47c-15.27,1.07-29.36,10.14-41.48,21.92-6.14,33.13-24.45,93.77-43.44,96.7a15.4,15.4,0,0,1-2.71.22C926.44,359.32,922.78,357.18,922.78,351Zm39.5-71.91c-7.5,9.75-35.95,52.8-35.95,71a11.84,11.84,0,0,0,.67,4.17c.62,1.52,1.35,2.19,2.26,2.19C936.47,356.5,952.3,312.66,962.28,279.13Z"/><path class="cls-2" d="M1040.94,263.86a62.92,62.92,0,0,1,1.86-15.94c-4.79,5.57-15.16,29.19-21.13,29.19h-.06c-9.8-1.36-13.24-7.78-13.24-15.56,0-13.8,10.65-32.06,15.55-35a1.49,1.49,0,0,1,.62-.11c1.86,0,6.71,1.07,6.71,5.12a8.42,8.42,0,0,1-1.13,3.78c-4.17,7.61-12,24.23-12,32.91,0,2.08.45,3.72,1.52,4.62a1.17,1.17,0,0,0,.85.39,2.3,2.3,0,0,0,1.52-.9c6.42-6.93,24.79-37.64,28.68-47.11a4.94,4.94,0,0,1,4.62-4h.11c1.81,0,3.44,1.19,3.44,4.17a12.48,12.48,0,0,1-.56,3.38c-1.07,3.89-7.1,26.77-9.13,36.63a35.05,35.05,0,0,0-.85,6.54c0,2.76.79,3.94,2,3.94,6.88,0,29.08-33.86,30.77-37.58a3.26,3.26,0,0,1,2.14-1.19c.45,0,.73.23.73.85a3.9,3.9,0,0,1-.33,1.52c-3.5,9.3-24.4,39.39-34.6,41.36a8,8,0,0,1-1.13.11C1042.58,281,1040.94,272.48,1040.94,263.86Z"/><path class="cls-2" d="M1181.31,236.31c-3.5,12.11-8.51,30.09-6.54,33.53,1.64-.62,11-42,25.64-40.18,9,1.13,11.55,14.93,29.53,7.83,5.52-2.2,4.11,2.2,2.65,4.06-15,8.28-22.82-7.38-29.53-8.29-8.79-1.18-21.08,30.55-23.78,37.76-1.8,4.85-1.86,10.26-7.16,8.79-2.81-.73-5.07-2.31-6-5.35-3.44-11.55,10.31-55.62,5.35-51.68-10.25,8.06-33.24,38.38-46.26,35.11-16.17-4.06-9.24-19.44-19-11-7.15,6.15-22.71,26.38-31.61,26.55-6.37.17-8.4-8.85-6.25-15.33,4.05-12.23,20.11-31,33.07-34.26,11.44-2.93,17.42,10.25,13.3,9.69-10.93-1.47-33.19,19.44-35.89,31.05-2.93,12.79,11.83-7.27,25.64-20.06,19-17.53,15.49,3.6,23.61,9,7.38,5,37.24-29.24,42.37-33.81,3-2.76,5.41-3.88,7.22-3.88C1184,215.85,1183.28,229.71,1181.31,236.31Z"/><path class="cls-2" d="M1250.16,312.78v-2.6c0-18,3.78-40.29,5.92-50.32,3.16-11.27,6.09-22.54,9.24-33.75-5.3,11.61-12.45,26.65-20.57,35.61a13.26,13.26,0,0,1-9.8,4.11,12.69,12.69,0,0,1-8.91-3.43c-1.85-1.86-2.7-4.68-2.7-8,0-13.3,13.36-34.6,28-34.6a15.9,15.9,0,0,1,3.21.33c1.07.23,2.7,2.82,2.7,5.19a3.74,3.74,0,0,1-2.59,3.72c-8.06,3-19.72,22.26-20.23,28l-.11,1.92c0,2.42.62,3.44,1.58,3.44,3.72,0,13.07-14.48,18.14-22.88,10.2-16.79,17.75-37.31,24-55.68,6.53-21.24,13.07-41.41,19.89-52,1.46-2.37,4.73-5.58,7.89-5.64a4.63,4.63,0,0,1,3.83,2.2,7.14,7.14,0,0,1,1.13,4.29c0,11.77-16.23,35.78-19.5,40-12.12,37.82-33.53,102.79-35.39,141.67l-.11,4.06c0,7.6,1.29,10.82,3.44,10.82,11.32,0,47-88.19,50.82-90.67a1.77,1.77,0,0,1,.74-.28c.33,0,.45.33.45.84,0,1.69-1.41,5.36-1.69,6.09-4.17,10-37.19,89.37-52.13,89.37C1253.26,334.64,1250.5,328.44,1250.16,312.78Zm57.71-179.14a2.06,2.06,0,0,0-.29-1.13.21.21,0,0,0-.22-.11c-2.26,0-11.61,27-12.17,28.74C1296.48,158.21,1307.87,139.21,1307.87,133.64Z"/><path class="cls-2" d="M1312.32,270.74a11,11,0,0,1-8.57-5,17.5,17.5,0,0,1-2-8.51c0-7,3.27-14.65,6.2-21.69,2.42-6,6-8.18,8.85-8.18h.11a4.64,4.64,0,0,1,4.73,4.68v.11c-.79,1.75-4.39,4-5.46,6.54-2.93,6.65-6.37,15.22-6.37,21.58,0,3.05.84,5.58,2.87,7.16a3,3,0,0,0,1.86.51c9.19,0,40-22.37,44.75-26.88,2.36-2.26,4-3.21,4.84-3.21.28,0,.45.16.45.5a5.37,5.37,0,0,1-1.63,2.76c-9.07,7.89-38.32,29.59-50.44,29.59Zm9.69-60.8c0-2.32,1.63-5,3.83-5,3.16,0,4.56,1.8,4.56,3.72,0,2.19-1.86,4.5-5.12,4.5A3,3,0,0,1,1322,209.94Z"/><path class="cls-2" d="M1445.75,157.47c-2.82,8.06-7.72,22-13.07,38.66,21.58-2.25,43.67-3.78,62.83-3,3.72.17,17.92.84,18.6,4,1.12,5.75-14.6,6.71-17.42,1.47a643.44,643.44,0,0,0-65.53,2.14c-18.43,57.42-41.53,142.29-13.25,139.3,5.19-.51-.22,14.65-8.79,5.07-19.83-22.26-2.81-93,11.67-143.47l-.51.06c-3.32.34-6.7.62-10.09,1-10.87,22.42-23.66,47.61-35.5,67.05,2.88,10.6,4.34,21.53-4.34,32.35-13.35,14.59-17.46-4.57-2.81-26.2-4.06-12.74-20-37.48,5-49.2,9.75-4.56,14.48,2,10.15,15.67-1.7,5.29-10.54,3.15-5.92-4.91,1.63-2.81,7.89-15.49-.73-6.76-10.37,10.54-6.26,22.49-2.54,35.05,10.31-18.2,21.7-41.3,31.84-62.55-15.16,1.58-30.43,3.33-46.1,5.13-4,1.07-5.18.79-7.94,1.35-2.54.51-3.83-.73-2.76-2.65,1.07-.67,1.18-.9,2.19-.95,2.88,0,5.75.45,8.63,0,13-1.86,29.75-4.45,47.84-6.87,13.8-28.91,25-53.42,27.72-55.51s6.31-4,9.07-4C1448.12,139.72,1450.49,143.78,1445.75,157.47Zm-83.51,147.19c4.23-1.35,10.37-16.85,7.44-25.58C1361.51,293.39,1358.52,305.79,1362.24,304.66Zm73.37-157c-.11.05-10,22.82-23.44,50.94,3.1-.45,6.25-.85,9.46-1.18l.45-.06c8.29-28.57,15.39-49.59,13.59-49.7Z"/><path class="cls-2" d="M1424.17,269.1a8.15,8.15,0,0,1-.17-1.74c0-12.74,23.5-41.08,40.46-41.08.73,0,1.46.05,2.14.11,5,.73,8,4.28,8,6.76a2.27,2.27,0,0,1-1.8,2.31c-10.6,3.16-34.66,21.64-37.31,33.31a8.33,8.33,0,0,0-.28,2.08c0,1,.34,1.47,1,1.47,5.35,0,32.06-34.15,43.11-34.15a3.78,3.78,0,0,1,2.93,1.24,10.25,10.25,0,0,1,2.59,7.27c0,3.49-1.07,7.49-1.92,11.83a24,24,0,0,0-.5,4.45c0,4.17,1.8,5.86,4.67,5.86,11.84,0,42.21-28.46,42.38-28.85,2.14-2.25,3.72-3.38,4.51-3.38.28,0,.45.17.45.51,0,.67-.68,2-2.14,3.94-5.64,7.33-35,32-50.32,32-5.47,0-9.13-3.16-9.25-11.44v-.23c0-5.18,1.69-10.37,1.86-15.55v-.22c0-.68-.17-1-.62-1-.73,0-2.14,1-4.5,3-9.47,8.11-17.19,22.26-28.24,28.91a11.79,11.79,0,0,1-6.08,1.74A11.13,11.13,0,0,1,1424.17,269.1Z"/><path class="cls-2" d="M1521,299c0-6,3.21-14.48,11.44-23-2.37-7.44-8.79-18.94-8.79-29.59,0-7.66,3.27-14.82,13.75-19.72a13.47,13.47,0,0,1,5.58-1.41h0c5.3,0,7.84,4.91,7.84,11.39,0,.62,0,1.29-.06,2a4.61,4.61,0,0,1-4.57,4c-1.69,0-3.09-1-3.09-3.33a12.66,12.66,0,0,1,1.74-5.57,14,14,0,0,0,1.75-4.63c0-.28-.11-.45-.28-.5a2.49,2.49,0,0,0-1-.12,7,7,0,0,0-4.51,2.26c-4.68,4.73-6.31,10.93-6.31,17.13,0,8.51,3,17.13,5.3,22.2,14.48-15.95,33.64-28.34,44.91-32.34l.9.78a2.93,2.93,0,0,1-2,2.26c-9.46,4.39-30,17.64-41.7,32.68a1.61,1.61,0,0,0-1,1.41c0,.85.68,1.8.79,3.16.17,1.8.23,3.43.23,5,0,7.5-1.86,13-6.82,19.22-3.16,3.43-6.09,5-8.45,5C1523.28,307.2,1521,304,1521,299Zm13.24-10.31a56.66,56.66,0,0,0-.9-9.53c-6.42,4.74-9,14.88-9.13,18v.62c0,3.49,1.58,5.41,3.5,5.41C1530.61,303.2,1534.27,298.8,1534.27,288.66Z"/></g></g></svg>