<svg xmlns="http://www.w3.org/2000/svg" viewBox="0 0 57.1 57.1"><defs><style>.cls-1{fill:#d38466;}</style></defs><g id="Layer_2" data-name="Layer 2"><g id="Layer_11" data-name="Layer 11"><path class="cls-1" d="M54.59,57.1a2.54,2.54,0,0,1-1.78-.74c-5-5-14-12.46-21.21-18.49a.83.83,0,1,1,1.07-1.28C39.94,42.64,49,50.18,54,55.18A.83.83,0,1,0,55.15,54c-5-5-12.49-14-19.09-21.94-.52-.61-1-1.23-1.52-1.83l-4.62,6.05c-.18.83-.94,4.32-2,8-1.63,5.9-3.07,9.42-4.42,10.76a8.15,8.15,0,0,1-5.47,2,.82.82,0,0,1-.87-.79.84.84,0,0,1,.8-.88,6.65,6.65,0,0,0,4.36-1.53c2.19-2.19,4.9-13.13,5.88-17.72l-7.3-7.29c-4.58,1-15.52,3.68-17.71,5.88A6.46,6.46,0,0,0,1.7,38.88a.84.84,0,0,1-.89.78A.84.84,0,0,1,0,38.77a8.1,8.1,0,0,1,2-5.21c1.35-1.34,4.87-2.78,10.77-4.41,2.55-.71,5-1.29,6.56-1.64-.54-.48-1-.91-1.4-1.28A1.65,1.65,0,0,1,17.44,25a1.61,1.61,0,0,1,.49-1.21l1.17-1.18L5.67,9.22a36.66,36.66,0,0,1-5.58-8,.83.83,0,0,1,.16-1,.83.83,0,0,1,1-.16,36.66,36.66,0,0,1,8,5.58l4.3,4.3a.84.84,0,1,1-1.18,1.19L8.63,7.44,7.44,8.63,20.29,21.47l1.18-1.18-6.81-6.82a.83.83,0,1,1,1.18-1.18l6.81,6.81,1.18-1.17A1.61,1.61,0,0,1,25,17.44a1.65,1.65,0,0,1,1.19.52c.71.75,1.6,1.75,2.72,3L32,18.63c1.08-1,17-16.35,22.3-18.36,1-.4,1.83-.35,2.33.16s.56,1.29.16,2.33C56,4.89,53,8.93,47.89,14.79a.84.84,0,1,1-1.26-1.1C52.85,6.58,54.76,3.5,55.27,2.16a3,3,0,0,0,.14-.47,3.34,3.34,0,0,0-.48.14c-1.43.55-4.8,2.67-12.73,9.7-3.71,3.29-7.08,6.47-8.42,7.75l4,4c1.13-1.18,3.73-3.94,6.59-7.11a.83.83,0,1,1,1.24,1.11c-3.61,4-6.82,7.37-7.18,7.75l-2.89,3.78L37.34,31c6.58,7.9,14,16.86,19,21.82a2.51,2.51,0,0,1-1.68,4.32ZM22.47,28l6.59,6.58,7.66-10-4.21-4.2Zm-1.6-4.78L19.11,25c.55.53,1.24,1.15,2.09,1.9L27.62,22c-1.07-1.23-1.93-2.18-2.61-2.9l-1.74,1.75,0,0,0,0-2.33,2.33h0v0ZM3.1,3.1A31,31,0,0,0,6.28,7.43L7.43,6.28A31,31,0,0,0,3.1,3.1ZM14.65,56.82l-.16,0A18.24,18.24,0,0,1,.21,42.11a.82.82,0,0,1,.69-1,.83.83,0,0,1,1,.68,15.74,15.74,0,0,0,.54,2.23l6.38-3.73a.83.83,0,0,1,1.14.3.82.82,0,0,1-.3,1.14L3,45.64a16.9,16.9,0,0,0,3.44,5,16.69,16.69,0,0,0,1.86,1.6l4.92-5.81a.83.83,0,1,1,1.27,1.08L9.71,53.18a16,16,0,0,0,3.06,1.42l2.53-3.8a.83.83,0,0,1,1.16-.23.83.83,0,0,1,.23,1.16l-2.23,3.35.36.08a.84.84,0,0,1-.17,1.66Z"/></g></g></svg>