<svg xmlns="http://www.w3.org/2000/svg" viewBox="0 0 47.16 47.41"><defs><style>.cls-1{fill:#d38466;fill-rule:evenodd;}</style></defs><g id="Layer_2" data-name="Layer 2"><g id="Layer_11" data-name="Layer 11"><polygon class="cls-1" points="46.35 47.41 0.74 47.41 0.49 47.35 0.25 47.16 0.06 46.91 0 46.6 0 5.6 0.06 5.29 0.25 5.1 0.49 4.92 0.74 4.79 8.7 4.79 9.07 4.92 9.26 5.1 9.44 5.29 9.51 5.6 9.44 5.97 9.26 6.15 9.07 6.34 8.7 6.4 1.54 6.4 1.54 45.8 45.55 45.8 45.55 6.4 38.51 6.4 38.21 6.34 37.96 6.15 37.84 5.97 37.77 5.6 37.84 5.29 37.96 5.1 38.21 4.92 38.51 4.79 46.35 4.79 46.66 4.92 46.97 5.1 47.09 5.29 47.16 5.6 47.16 46.6 47.09 46.91 46.97 47.16 46.66 47.35 46.35 47.41 46.35 47.41 46.35 47.41"/><path class="cls-1" d="M9.41,8h4.64V1.57H9.41V8Zm5.43,1.63H8.61l-.3-.06-.19-.19-.24-.25-.06-.31v-8L7.88.5,8.12.19,8.31.06,8.61,0h6.23l.24.06.31.13.18.31.06.31v8l-.06.31-.18.25-.31.19-.24.06Z"/><path class="cls-1" d="M32.87,8H37.8V1.57H32.87V8Zm5.7,1.63H32l-.32-.06-.26-.19-.13-.25-.06-.31v-8L31.33.5l.13-.31.26-.13L32,0h6.53l.32.06.26.13.12.31.07.31v8l-.07.31-.12.25-.26.19-.32.06Z"/><polygon class="cls-1" points="32.23 6.3 14.93 6.3 14.62 6.25 14.37 6.07 14.18 5.9 14.12 5.55 14.18 5.26 14.37 5.08 14.62 4.91 14.93 4.79 32.23 4.79 32.54 4.91 32.79 5.08 32.97 5.26 33.03 5.55 32.97 5.9 32.79 6.07 32.54 6.25 32.23 6.3 32.23 6.3 32.23 6.3"/><polygon class="cls-1" points="46.35 15.63 0.74 15.63 0.49 15.58 0.25 15.46 0.06 15.17 0 14.88 0.06 14.64 0.25 14.35 0.49 14.18 0.74 14.12 46.35 14.12 46.66 14.18 46.97 14.35 47.09 14.64 47.16 14.88 47.09 15.17 46.97 15.46 46.66 15.58 46.35 15.63 46.35 15.63 46.35 15.63"/><polygon class="cls-1" points="17.9 39.34 17.6 39.28 17.37 39.09 17.19 38.79 17.13 38.54 17.13 24.89 14.66 27.4 14.42 27.58 14.13 27.64 13.84 27.58 13.6 27.4 13.48 27.15 13.37 26.84 13.48 26.6 13.6 26.29 17.37 22.38 17.54 22.25 17.78 22.19 17.95 22.19 18.19 22.25 18.37 22.38 18.48 22.5 18.66 22.68 18.66 22.99 18.66 38.54 18.54 38.79 18.43 39.09 18.19 39.28 17.9 39.34 17.9 39.34 17.9 39.34"/><polygon class="cls-1" points="21.96 39.34 14.16 39.34 13.85 39.28 13.67 39.11 13.49 38.87 13.37 38.58 13.49 38.29 13.67 38.12 13.85 37.88 14.16 37.83 21.96 37.83 22.21 37.88 22.51 38.12 22.63 38.29 22.7 38.58 22.63 38.87 22.51 39.11 22.21 39.28 21.96 39.34 21.96 39.34 21.96 39.34"/><polygon class="cls-1" points="27.44 39.34 27.32 39.28 27.19 39.22 26.94 39.09 26.69 38.79 26.63 38.54 26.69 38.24 32.62 23.66 25.07 23.66 25.07 24.76 24.95 25.07 24.76 25.25 24.57 25.44 24.26 25.5 23.89 25.44 23.7 25.25 23.51 25.07 23.45 24.76 23.45 22.99 23.51 22.62 23.7 22.38 23.89 22.25 24.26 22.19 33.74 22.19 33.92 22.19 34.17 22.25 34.3 22.38 34.42 22.56 34.55 22.68 34.55 22.93 34.55 23.11 34.48 23.23 28.19 38.73 28.06 39.03 27.94 39.16 27.63 39.28 27.44 39.34 27.44 39.34 27.44 39.34"/><polygon class="cls-1" points="32.49 31.52 26.52 31.52 26.21 31.46 26.03 31.35 25.78 31.11 25.72 30.77 25.78 30.53 26.03 30.3 26.21 30.12 26.52 30.01 32.49 30.01 32.73 30.12 32.98 30.3 33.23 30.53 33.29 30.77 33.23 31.11 32.98 31.35 32.73 31.46 32.49 31.52 32.49 31.52 32.49 31.52"/></g></g></svg>