<svg xmlns="http://www.w3.org/2000/svg" viewBox="0 0 47.78 56.91"><defs><style>.cls-1{fill:#d38466;fill-rule:evenodd;}</style></defs><g id="Layer_2" data-name="Layer 2"><g id="Layer_11" data-name="Layer 11"><path class="cls-1" d="M28.65,3.3l8.28,8.12H28.65V3.3Zm-6.3,46.23H1.91V1.9H26.74V12.37l.06.19v.19l.2.12.06.13.13.19.19.07.12.06H38.26v4l.07.19.06.19.13.13.19.07.13.12.19.07h.38L39.6,18l.19-.12.13-.07.06-.13.13-.19v-.19l.06-.19V12.37L40.11,12l-.19-.32L28.4.25,28.27.13,28.14.06,28,0H.76L.57.06.38.13.25.25.19.38.06.63V.76L0,1V50.48l.06.19v.13l.13.26.06.12.13.07.19.12H.76l.2.07H22.35l.19-.07h.19l.13-.12.19-.07.13-.12.06-.26.06-.13v-.38l-.06-.19L23.18,50l-.13-.19-.19-.13-.13-.06-.19-.07Z"/><path class="cls-1" d="M37.31,30.5l.57.06.5.19.5.25.37.38.44.44.19.44.18.56.07.51-.07.63-.18.56-.19.44-.44.38-.37.38-.5.25-.5.12-.57.07-.56-.07L36.19,36l-.44-.25-.43-.38L35,35l-.31-.44L34.5,34V32.82l.19-.56.31-.44.32-.44.43-.38.44-.25.56-.19.56-.06Zm0,7.54h.5l.44-.06.44-.12.44-.13.43-.19.38-.31.31-.26.38-.25.31-.31.25-.44.19-.32.25-.44.18-.44.07-.5.06-.44.06-.5-.06-.44-.06-.51-.07-.44-.18-.44-.25-.37-.19-.38-.25-.38-.31-.31-.38-.32-.31-.31-.38-.25L39.13,29l-.44-.13-.44-.12-.44-.13h-1l-.43.13-.44.12-.5.13-.37.19-.44.25-.31.31-.32.32-.31.31-.31.38-.19.38L33,31.5l-.12.44-.19.44-.06.51-.06.44.06.5.06.44.19.5.12.44.19.44.19.32.31.44.31.31.32.25.31.26.44.31.37.19.5.13.44.12.43.06Z"/><path class="cls-1" d="M44,54.08,37.9,49.49l-.31-.06-.26-.07-.31.07-.26.06-6.14,4.59V41.94l.63.12.51.07.44.56.51.63.57.44.63.44.64.32.76.25.76.19.82.06.7-.06.76-.19.76-.25.69-.32.57-.44.64-.44.44-.63.44-.56H42l.57-.07.44-.12.51-.13.44-.13v12.4ZM28.66,33.94l.12-.31.07-.32-.07-.25-.12-.25-.32-.57-.25-.44-.19-.63-.13-.5V30.1l.13-.5.19-.63.25-.56.32-.44.38-.45.44-.31L30,27l.5-.19.57-.19.57-.06h.64l.25.06.38-.13.19-.18.19-.26.25-.56.32-.44.38-.44.44-.38.51-.25.57-.25.51-.13.63-.06.51.06.63.13.44.25.57.25.38.38.45.44.31.44.19.56.26.26.19.18.31.13.32-.06H42l.63.06.51.19.57.19.44.25.51.31.38.45.25.44.32.56.19.63.06.5v.57l-.06.5-.19.63-.32.44-.31.57-.13.25-.06.25.06.32.13.31.31.51.32.5.19.57.06.5v.57l-.06.56-.19.57-.32.57-.25.44-.38.37-.51.44-.44.26-.57.19-.51.06-.63.12-.57-.12-.32.12-.31.07-.19.19-.26.18-.19.57-.31.5-.45.45-.38.31-.57.25-.44.19-.63.19-.51.06-.63-.06-.51-.19-.57-.19-.51-.25-.44-.31-.38-.45-.32-.5-.25-.57-.13-.18L33,40.3l-.31-.13-.26-.12h-.12l-.64.12-.57-.12L30.49,40,30,39.8l-.51-.26L29,39.1l-.38-.37-.32-.44-.25-.57-.19-.57-.13-.56V36l.13-.5.19-.57.25-.5.32-.51Zm18.24-.63.38-.62.31-.76.13-.69.06-.82v-.69L47.59,29l-.19-.75L47,27.46l-.44-.56-.51-.63-.57-.44-.63-.44-.76-.32-.63-.19-.76-.19-.83-.06-.44-.57L41,23.43l-.64-.5-.57-.44-.69-.31-.7-.26-.82-.25-.7-.06-.82.06-.76.25-.76.26-.64.31-.63.44-.57.5-.51.63-.44.57-.7.06-.82.19-.7.25-.76.26-.57.44-.63.5-.44.57-.45.56-.38.76-.19.75-.19.76-.06.69.06.82.26.69.19.76.38.62-.38.76-.19.69-.26.76-.06.69.06.82.19.75.19.76.38.69.45.57.44.56.57.44.57.44V56l.06.25.07.32.25.19.19.06.25.12h.26l.25-.06.25-.12,7-5.23,7,5.23.13.12h.19l.13.06h.31l.19-.12.26-.06.19-.19.06-.32.06-.25V40.55l.64-.63.5-.69.38-.69.19-.76.19-.75v-.82l-.06-.69-.13-.76-.31-.69-.38-.76Z"/></g></g></svg>