<svg xmlns="http://www.w3.org/2000/svg" viewBox="0 0 43.66 46.34"><defs><style>.cls-1{fill:#d38466;}</style></defs><g id="Layer_2" data-name="Layer 2"><g id="Layer_11" data-name="Layer 11"><path class="cls-1" d="M43.41,12.54,31.61.27A.91.91,0,0,0,31,0H13.37A3.57,3.57,0,0,0,9.8,3.57V16H2.67A2.68,2.68,0,0,0,0,18.71V32.08a2.68,2.68,0,0,0,2.67,2.67H9.8v8a3.57,3.57,0,0,0,3.57,3.57H40.09a3.57,3.57,0,0,0,3.57-3.57V13.16A.9.9,0,0,0,43.41,12.54ZM31.19,2.41l9.69,10.07H31.19ZM2.67,33a.89.89,0,0,1-.89-.89V18.71a.89.89,0,0,1,.89-.89H26.73a.89.89,0,0,1,.89.89V32.08a.89.89,0,0,1-.89.89Zm39.21,9.8a1.78,1.78,0,0,1-1.79,1.78H13.37a1.79,1.79,0,0,1-1.79-1.78v-8H26.73a2.68,2.68,0,0,0,2.68-2.67V18.71A2.68,2.68,0,0,0,26.73,16H11.58V3.57a1.79,1.79,0,0,1,1.79-1.79h16V13.37a.89.89,0,0,0,.89.89H41.88V42.77Z"/><path class="cls-1" d="M10.65,22.62a1.93,1.93,0,0,0-1.1-.75,8.6,8.6,0,0,0-1.84-.12H5.23v7.66H6.78V26.52h1a9.08,9.08,0,0,0,1.6-.11,2.28,2.28,0,0,0,.8-.36,2.21,2.21,0,0,0,.65-.76,2.48,2.48,0,0,0,.26-1.18A2.34,2.34,0,0,0,10.65,22.62Zm-1.32,2.1a1.06,1.06,0,0,1-.48.38,4.08,4.08,0,0,1-1.23.12H6.78V23.05h.75a6.91,6.91,0,0,1,1.11.05,1,1,0,0,1,.62.34,1.11,1.11,0,0,1,.07,1.28Z"/><path class="cls-1" d="M18.53,23.84a3.4,3.4,0,0,0-.73-1.24,2.52,2.52,0,0,0-1.16-.7,5.37,5.37,0,0,0-1.46-.15H12.36v7.66h2.91a4.58,4.58,0,0,0,1.37-.17,2.68,2.68,0,0,0,1.08-.61,3.25,3.25,0,0,0,.82-1.35,5,5,0,0,0,.24-1.63A5.85,5.85,0,0,0,18.53,23.84ZM17,27a1.61,1.61,0,0,1-.4.73A1.45,1.45,0,0,1,16,28a4,4,0,0,1-.93.08H13.91V23.05h.69a7,7,0,0,1,1.27.07,1.37,1.37,0,0,1,.71.36,1.68,1.68,0,0,1,.44.74,4.38,4.38,0,0,1,.16,1.36A4.83,4.83,0,0,1,17,27Z"/><polygon class="cls-1" points="25.34 23.05 25.34 21.75 20.1 21.75 20.1 29.41 21.64 29.41 21.64 26.15 24.84 26.15 24.84 24.86 21.64 24.86 21.64 23.05 25.34 23.05"/></g></g></svg>